<mxfile host="app.diagrams.net" agent="Mozilla/5.0 (Windows NT 10.0; Win64; x64) AppleWebKit/537.36 (KHTML, like Gecko) Chrome/138.0.0.0 Safari/537.36" version="28.0.7">
  <diagram name="Page-1" id="4wkV4Bb_oeYrLojgOSVB">
    <mxGraphModel dx="3153" dy="1757" grid="1" gridSize="10" guides="1" tooltips="1" connect="1" arrows="1" fold="1" page="1" pageScale="1" pageWidth="850" pageHeight="1100" math="0" shadow="0">
      <root>
        <mxCell id="0" />
        <mxCell id="1" parent="0" />
        <mxCell id="Lh-iwgCYphF1HfvxAwnO-1" value="" style="endArrow=classic;html=1;rounded=0;" parent="1" edge="1">
          <mxGeometry relative="1" as="geometry">
            <mxPoint x="-1680" y="-1080" as="sourcePoint" />
            <mxPoint x="-1580" y="-1080" as="targetPoint" />
          </mxGeometry>
        </mxCell>
        <mxCell id="Lh-iwgCYphF1HfvxAwnO-2" value="Wired" style="edgeLabel;resizable=0;html=1;;align=center;verticalAlign=middle;" parent="Lh-iwgCYphF1HfvxAwnO-1" connectable="0" vertex="1">
          <mxGeometry relative="1" as="geometry" />
        </mxCell>
        <mxCell id="Lh-iwgCYphF1HfvxAwnO-3" value="" style="endArrow=classic;html=1;rounded=0;dashed=1;" parent="1" edge="1">
          <mxGeometry relative="1" as="geometry">
            <mxPoint x="-1680" y="-1062" as="sourcePoint" />
            <mxPoint x="-1580" y="-1062" as="targetPoint" />
          </mxGeometry>
        </mxCell>
        <mxCell id="Lh-iwgCYphF1HfvxAwnO-4" value="Wireless" style="edgeLabel;resizable=0;html=1;;align=center;verticalAlign=middle;" parent="Lh-iwgCYphF1HfvxAwnO-3" connectable="0" vertex="1">
          <mxGeometry relative="1" as="geometry" />
        </mxCell>
        <mxCell id="Lh-iwgCYphF1HfvxAwnO-5" value="Internet&lt;div&gt;400mb/s down&lt;/div&gt;&lt;div&gt;20mb/s up&lt;/div&gt;" style="ellipse;shape=cloud;whiteSpace=wrap;html=1;" parent="1" vertex="1">
          <mxGeometry x="-1335" y="-1100" width="120" height="80" as="geometry" />
        </mxCell>
        <mxCell id="Lh-iwgCYphF1HfvxAwnO-6" style="edgeStyle=orthogonalEdgeStyle;rounded=0;orthogonalLoop=1;jettySize=auto;html=1;" parent="1" source="Lh-iwgCYphF1HfvxAwnO-11" target="Lh-iwgCYphF1HfvxAwnO-13" edge="1">
          <mxGeometry relative="1" as="geometry" />
        </mxCell>
        <mxCell id="Lh-iwgCYphF1HfvxAwnO-7" style="edgeStyle=orthogonalEdgeStyle;rounded=0;orthogonalLoop=1;jettySize=auto;html=1;" parent="1" source="Lh-iwgCYphF1HfvxAwnO-11" target="Lh-iwgCYphF1HfvxAwnO-19" edge="1">
          <mxGeometry relative="1" as="geometry">
            <mxPoint x="-1275.05" y="-890" as="targetPoint" />
            <Array as="points">
              <mxPoint x="-1275" y="-900" />
              <mxPoint x="-1416" y="-900" />
            </Array>
          </mxGeometry>
        </mxCell>
        <mxCell id="Lh-iwgCYphF1HfvxAwnO-8" style="edgeStyle=orthogonalEdgeStyle;rounded=0;orthogonalLoop=1;jettySize=auto;html=1;" parent="1" source="Lh-iwgCYphF1HfvxAwnO-11" target="Lh-iwgCYphF1HfvxAwnO-21" edge="1">
          <mxGeometry relative="1" as="geometry">
            <Array as="points">
              <mxPoint x="-1275" y="-900" />
              <mxPoint x="-1310" y="-900" />
            </Array>
          </mxGeometry>
        </mxCell>
        <mxCell id="Lh-iwgCYphF1HfvxAwnO-9" style="edgeStyle=orthogonalEdgeStyle;rounded=0;orthogonalLoop=1;jettySize=auto;html=1;" parent="1" source="Lh-iwgCYphF1HfvxAwnO-11" target="Lh-iwgCYphF1HfvxAwnO-22" edge="1">
          <mxGeometry relative="1" as="geometry">
            <Array as="points">
              <mxPoint x="-1275" y="-900" />
              <mxPoint x="-1200" y="-900" />
            </Array>
          </mxGeometry>
        </mxCell>
        <mxCell id="Lh-iwgCYphF1HfvxAwnO-10" style="edgeStyle=orthogonalEdgeStyle;rounded=0;orthogonalLoop=1;jettySize=auto;html=1;dashed=1;" parent="1" source="Lh-iwgCYphF1HfvxAwnO-11" target="Lh-iwgCYphF1HfvxAwnO-23" edge="1">
          <mxGeometry relative="1" as="geometry" />
        </mxCell>
        <mxCell id="Lh-iwgCYphF1HfvxAwnO-11" value="TP-Link AX55 AC3000" style="sketch=0;verticalLabelPosition=top;sketch=0;aspect=fixed;html=1;verticalAlign=bottom;strokeColor=none;fillColor=#000000;align=center;outlineConnect=0;pointerEvents=1;shape=mxgraph.citrix2.wifi_router;labelPosition=center;" parent="1" vertex="1">
          <mxGeometry x="-1300" y="-990" width="49.9" height="50" as="geometry" />
        </mxCell>
        <mxCell id="Lh-iwgCYphF1HfvxAwnO-12" style="edgeStyle=orthogonalEdgeStyle;rounded=0;orthogonalLoop=1;jettySize=auto;html=1;" parent="1" source="Lh-iwgCYphF1HfvxAwnO-13" target="Lh-iwgCYphF1HfvxAwnO-14" edge="1">
          <mxGeometry relative="1" as="geometry">
            <mxPoint x="-1505" y="-910" as="targetPoint" />
          </mxGeometry>
        </mxCell>
        <mxCell id="Lh-iwgCYphF1HfvxAwnO-13" value="TP-Link 5-port 1GB Switch" style="sketch=0;verticalLabelPosition=top;sketch=0;aspect=fixed;html=1;verticalAlign=bottom;strokeColor=none;fillColor=#000000;align=center;outlineConnect=0;pointerEvents=1;shape=mxgraph.citrix2.switch;labelPosition=center;" parent="1" vertex="1">
          <mxGeometry x="-1605" y="-978.66" width="50" height="27.32" as="geometry" />
        </mxCell>
        <mxCell id="Lh-iwgCYphF1HfvxAwnO-14" value="Media Center" style="swimlane;startSize=0;labelPosition=center;verticalLabelPosition=bottom;align=center;verticalAlign=top;" parent="1" vertex="1">
          <mxGeometry x="-1680" y="-910" width="200" height="200" as="geometry">
            <mxRectangle x="-1605" y="-910" width="50" height="40" as="alternateBounds" />
          </mxGeometry>
        </mxCell>
        <mxCell id="Lh-iwgCYphF1HfvxAwnO-15" value="Roku" style="image;points=[];aspect=fixed;html=1;align=center;shadow=0;dashed=0;image=data:image/svg+xml,PHN2ZyB4bWxucz0iaHR0cDovL3d3dy53My5vcmcvMjAwMC9zdmciIHZpZXdCb3g9IjAgMCA3NS43MTMgNjEuMzYiPjxnIGZpbGw9Im5vbmUiIHN0cm9rZT0iIzYyNjM2NiIgc3Ryb2tlLXdpZHRoPSIzIiBzdHJva2UtbGluZWpvaW49InJvdW5kIj48cGF0aCBkPSJNNDAuMDI1IDQyLjk0Nkw3NC4yMTMgMjQuOHYxNi45MTVMNDAuMDI1IDU5Ljg2eiIvPjxwYXRoIGQ9Ik00MC4wMiA0Mi45NDZsLjAwNSAxNi45MTRMMS41IDM2Ljc2di0xNi44N3oiLz48cGF0aCBkPSJNMS41IDE5Ljg4OEwzNS41OCAxLjVsMzguNjI3IDIzLjI5OEw0MC4wMiA0Mi45NDZ6Ii8+PC9nPjxwYXRoIGQ9Ik0xLjUgMTkuODg4TDM1LjU4IDEuNWwzOC42MjcgMjMuM0w0MC4wMiA0Mi45NDZ6IiBmaWxsPSIjYmJiZGJmIi8+PHBhdGggZD0iTTEuNyAxOS44OGwzOC4zMiAyMi44MzR2MTYuOTM1IiBmaWxsPSJub25lIiBzdHJva2U9IiNkZmUwZGYiIHN0cm9rZS13aWR0aD0iLjUyNSIgc3Ryb2tlLWxpbmVjYXA9InJvdW5kIiBzdHJva2UtbGluZWpvaW49InJvdW5kIi8+PHBhdGggZD0iTTQwLjAyIDQyLjk0NmwuMDA1IDE2LjkxNUwxLjUgMzYuNzZ2LTE2Ljg3eiIgZmlsbD0iI2IzYjViNyIvPjxwYXRoIGQ9Ik0yNC45MTYgNDguNzY4bC02LjU1OC0zLjk0Ny4wMTQtNi41NjggNi41MiAzLjkzM3pNMzUuNzQgNTUuMjNsLTYuNTU4LTMuOTQ2LjAxNC02LjU2OCA2LjUyMiAzLjkzM3oiIGZpbGw9IiNmZWZlZmUiLz48cGF0aCBkPSJNNDAuMDIgNDIuOTQ2TDc0LjIwOCAyNC44bC4wMDUgMTYuOTE1TDQwLjAyNSA1OS44NnoiIGZpbGw9IiM4OThiOGUiLz48L3N2Zz4=;" parent="Lh-iwgCYphF1HfvxAwnO-14" vertex="1">
          <mxGeometry x="15" y="20" width="46" height="37" as="geometry" />
        </mxCell>
        <mxCell id="Lh-iwgCYphF1HfvxAwnO-16" value="LG TV" style="image;points=[];aspect=fixed;html=1;align=center;shadow=0;dashed=0;image=data:image/svg+xml,PHN2ZyB4bWxucz0iaHR0cDovL3d3dy53My5vcmcvMjAwMC9zdmciIHZpZXdCb3g9IjAgMCA4Mi4wNzUgODQuNDYzIj48c3R5bGU+PCFbQ0RBVEFbLlF7c3Ryb2tlLWxpbmVqb2luOnJvdW5kfS5Se3N0cm9rZTojNjM2NDY2fS5Te3N0cm9rZS13aWR0aDoyfV1dPjwvc3R5bGU+PGcgZmlsbD0ibm9uZSIgc3Ryb2tlPSIjNjI2MzY2IiBzdHJva2Utd2lkdGg9IjMiIGNsYXNzPSJRIj48cGF0aCBkPSJNNzUuNjQ0IDM1LjAxN2w0Ljg5Ni0yLjYuMDM1IDQ3Ljk0Ni00Ljg5OCAyLjZ6Ii8+PHBhdGggZD0iTTI0LjE4OCA0LjFsNC44OTctMi42TDgwLjU0IDMyLjQxN2wtNC44OTYgMi42eiIvPjxwYXRoIGQ9Ik03NS42NDQgMzUuMDE3bC4wMzMgNDcuOTQ2LTUxLjQ1NC0zMC45MThMMjQuMTkgNC4xeiIvPjwvZz48cGF0aCBkPSJNNzUuNjQzIDM1LjAxN2w0Ljg5Ny0yLjYuMDM0IDQ3Ljk0Ni00Ljg5OCAyLjZ6IiBmaWxsPSIjODk4YjhlIi8+PHBhdGggZD0iTTI0LjE4OCA0LjFsNC44OTYtMi42TDgwLjU0IDMyLjQxN2wtNC44OTcgMi42eiIgZmlsbD0iI2JiYmRiZiIvPjxwYXRoIGQ9Ik03NS42NDMgMzUuMDE3bC4wMzMgNDcuOTQ2LTUxLjQ1NC0zMC45MThMMjQuMTg4IDQuMXoiIGZpbGw9IiNiM2I1YjciLz48cGF0aCBkPSJNNzAuOTg1IDY5LjEyMkwyOC45MTcgNDMuODQ1VjEzLjYybDQyLjA2OCAyNS4yNzd6IiBmaWxsPSIjZmVmZWZlIi8+PHBhdGggZD0iTTUzLjkzIDMwLjYxMmwxNS41NjQgOS4zNS4wODcgOC43MDJzLS4yNzctNi4yNC00LjkwMy0xMC4xNWMtNS45MDctNC45OTItMTAuNzQ4LTcuOS0xMC43NDgtNy45IiBmaWxsPSIjYzRjYWNlIi8+PHBhdGggZD0iTTY0LjM5MiA3MC42OGwtMTAuNTMtNi4zMjd2LTEuNTVsMTAuNTMgNi4zMjZ6bTMuNDMyIDEuMzZjMCAuNDY4LS4zOC42Mi0uODUuMzM4cy0uODUtLjg5Mi0uODUtMS4zNi4zODMtLjYyLjg1LS4zNC44NS45Ljg1IDEuMzZtMi41MTQgMS41MTJjMCAuNDY4LS4zOC42Mi0uODUuMzM4cy0uODQ4LS45LS44NDgtMS4zNTguMzgtLjYyLjg0OC0uMzQuODUuOS44NSAxLjM2IiBmaWxsPSIjZmVmZWZlIi8+PGcgZmlsbD0ibm9uZSI+PHBhdGggZD0iTTI0Ljc4OCA1My4wMzdMNzUuNjcgODMuNiIgc3Ryb2tlLXdpZHRoPSIxLjMiIGNsYXNzPSJSIi8+PHBhdGggZD0iTTI0LjYyMiA0LjI2bDUxLjAwMiAzMC42NDUuMDM0IDQ3LjY1IiBzdHJva2U9IiNlMWUyZTMiIHN0cm9rZS1saW5lY2FwPSJyb3VuZCIgY2xhc3M9IlEiLz48ZyBjbGFzcz0iUiI+PHBhdGggZD0iTTgxLjE3OCw2NC41NDd2MTIuNTk4IiBzdHJva2Utd2lkdGg9IjEuNDUiLz48ZyBjbGFzcz0iUSBTIj48cGF0aCBkPSJNMzMuMDQzIDYyLjA3N2wtMTQuMTcgNy41MmMuMzg2LS4yMDUuNjI1LS42OC42MjgtMS4zNjZsMTQuMTY4LTcuNTJjMCAuNjg2LS4yNCAxLjE2Mi0uNjI3IDEuMzY2ek0zLjE1NiAzOC40MzhsMTQuMTctNy41MiAxNC41MTggOC43MjMtMTQuMTcgNy41MjJ6bTE2LjM0NiAxMi4xMzRsMTQuMTctNy41MjIuMDEgMTcuNTA1LTE0LjE2OCA3LjUyeiIvPjxwYXRoIGQ9Ik0xNy41IDQ3LjE0NGMxLjEuNjU4IDEuOTg1IDIuMjU4IDEuOTg3IDMuNTgzbC4wMTUgMTcuNTA1Yy0uMDAzIDEuMzE4LS44ODggMS44NTgtMS45ODUgMS4xOThMMyA2MC43MDdjLTEuMDk3LS42Ni0xLjk4Ni0yLjI2NC0xLjk4OC0zLjU4M0wxIDM5LjYyYy0uMDAxLTEuMzIzLjg4OC0xLjg1NyAxLjk4NC0xLjE5OEwxNy41IDQ3LjE0NHoiLz48L2c+PC9nPjwvZz48cGF0aCBkPSJNMTcuNSA0Ny4xNDRsMTQuMTctNy41MjJjMS4wOTcuNjYgMS45ODIgMi4yNiAxLjk4NyAzLjU4NWwtMTQuMTcgNy41MmMtLjAwMi0xLjMyNS0uODg4LTIuOTI1LTEuOTg3LTMuNTgzeiIgZmlsbD0iIzYzNjQ2NiIgY2xhc3M9IlEgUiBTIi8+PHBhdGggZD0iTTEuNzk2IDM4LjI3bDE0LjE3LTcuNTJjLjM1NC0uMTkuODMzLS4xNDYgMS4zNi4xN2wtMTQuMTcgNy41MmMtLjUyNy0uMzE1LTEuMDA0LS4zNTYtMS4zNi0uMTciIGZpbGw9Im5vbmUiIGNsYXNzPSJSIFMiLz48cGF0aCBkPSJNMi43NSAzOC40MzhsMTQuMTctNy41MiAxNC41MTggOC43MjItMTQuMTcgNy41MjN6IiBmaWxsPSIjYjNiNWI3Ii8+PHBhdGggZD0iTTE5LjI1MiA1MC43NDVsMTQuMTctNy41Mi4wMTIgMTcuNTA0LTE0LjE3IDcuNTJ6IiBmaWxsPSIjODk4YjhlIi8+PHBhdGggZD0iTTE4LjY4IDY3Ljg5NmwtLjAxNC0xNy41MDRjMC0uOTMzLS42MjUtMi4wNjItMS40LTIuNTI3TDIuNzUgMzkuMTQyYy0uNzczLS40NjQtMS4zOTctLjA4Ni0xLjM5Ny44NDZsLjAxMyAxNy41MDRjMCAuOTMuNjI2IDIuMDYgMS40IDIuNTI3bDE0LjUxNyA4LjcyM2MuNzczLjQ2MyAxLjM5OC4wODQgMS4zOTgtLjg0NnpNMTcuMjY1IDQ3LjE2YzEuMS42NTggMS45ODUgMi4yNTggMS45ODcgMy41ODNsLjAxNCAxNy41MDVjLS4wMDIgMS4zMTgtLjg4NyAxLjg1Ny0xLjk4NCAxLjE5OEwyLjc2NSA2MC43MjRDMS42NjggNjAuMDY0Ljc4IDU4LjQ2Ljc3NyA1Ny4xNEwuNzY1IDM5LjYzNmMtLjAwMS0xLjMyMy44ODgtMS44NTcgMS45ODQtMS4xOThsMTQuNTE2IDguNzIzeiIgZmlsbD0iIzYzNjQ2NiIvPjxwYXRoIGQ9Ik0xNy4yNjYgNDcuODY2Yy43NzUuNDY0IDEuNCAxLjU5NCAxLjQgMi41MjdsLjAxNCAxNy41MDRjMCAuOTMtLjYyNSAxLjMxLTEuMzk4Ljg0NkwyLjc2NSA2MC4wMmMtLjc3NC0uNDY4LTEuNC0xLjU5Ny0xLjQtMi41MjdMMS4zNTIgMzkuOTljMC0uOTMzLjYyNC0xLjMxIDEuMzk3LS44NDdsMTQuNTE3IDguNzI0eiIgZmlsbD0iI2Y1ZjZmNiIvPjxwYXRoIGQ9Ik02LjYwOCA1OS40NTVsLTIuNzI3LTEuNjR2LTEzLjg4bDIuNzI3IDEuNjR6bTQuMDMtNi4zMjdsMS4yNjguNzZjMS4yNS43NTIgMS43LjUxMyAxLjctLjQgMC0xLjA1Mi0uNTMtMS43NS0yLjAwNi0yLjYzOGwtLjk2Mi0uNTc4djIuODY2em0yLjE1LTMuODQyYzIuNTAzIDEuNTAzIDMuNjI2IDQuMTU0IDMuNjI2IDUuODQyIDAgMS43NC0xLjEgMy4wODItMy42IDEuNTY4bC0yLjE2Ni0xLjN2Ni40OEw3LjkgNjAuMjM3di0xMy44OGw0Ljg3NiAyLjkzeiIgZmlsbD0iIzYyNjM2NiIvPjxwYXRoIGQ9Ik0xNy4yNjUgNDcuMTZsMTQuMTctNy41MjJjMS4wOTcuNjYgMS45ODIgMi4yNiAxLjk4NyAzLjU4NWwtMTQuMTcgNy41MmMtLjAwMi0xLjMyNS0uODg4LTIuOTI1LTEuOTg3LTMuNTgzek0xLjQgMzguMjdsMTQuMTctNy41MmMuMzU0LS4yLjgzMy0uMTQ2IDEuMzYuMTdMMi43NSAzOC40NGMtLjUyNy0uMzE1LTEuMDA0LS4zNTYtMS4zNi0uMTciIGZpbGw9IiNiYmJkYmYiLz48cGF0aCBkPSJNMzIuODA4IDYyLjA5NGwtMTQuMTcgNy41MmMuMzg2LS4yMDUuNjI1LS42OC42MjgtMS4zNjZsMTQuMTY4LTcuNTJjMCAuNjg2LS4yNCAxLjE2Mi0uNjI3IDEuMzY2eiIgZmlsbD0iIzc4N2E3ZCIvPjwvc3ZnPg==;" parent="Lh-iwgCYphF1HfvxAwnO-14" vertex="1">
          <mxGeometry x="135" y="13.399999999999977" width="49" height="51" as="geometry" />
        </mxCell>
        <mxCell id="Lh-iwgCYphF1HfvxAwnO-17" value="Available" style="verticalLabelPosition=bottom;verticalAlign=top;html=1;shape=mxgraph.basic.polygon;polyCoords=[[0.25,0],[0.75,0],[1,0.25],[1,0.75],[0.75,1],[0.25,1],[0,0.75],[0,0.25]];polyline=0;" parent="Lh-iwgCYphF1HfvxAwnO-14" vertex="1">
          <mxGeometry x="12.799999999999955" y="120" width="50" height="50" as="geometry" />
        </mxCell>
        <mxCell id="Lh-iwgCYphF1HfvxAwnO-18" value="Available" style="verticalLabelPosition=bottom;verticalAlign=top;html=1;shape=mxgraph.basic.polygon;polyCoords=[[0.25,0],[0.75,0],[1,0.25],[1,0.75],[0.75,1],[0.25,1],[0,0.75],[0,0.25]];polyline=0;" parent="Lh-iwgCYphF1HfvxAwnO-14" vertex="1">
          <mxGeometry x="134.20000000000005" y="120" width="50" height="50" as="geometry" />
        </mxCell>
        <mxCell id="Lh-iwgCYphF1HfvxAwnO-19" value="ACER Swift 5&lt;div&gt;HomeLab Testbench&lt;/div&gt;" style="image;points=[];aspect=fixed;html=1;align=center;shadow=0;dashed=0;image=data:image/svg+xml,PHN2ZyB4bWxucz0iaHR0cDovL3d3dy53My5vcmcvMjAwMC9zdmciIHhtbG5zOnhsaW5rPSJodHRwOi8vd3d3LnczLm9yZy8xOTk5L3hsaW5rIiB2aWV3Qm94PSIwIDAgNjkuNTExIDcwLjkzNiI+PHN0eWxlPjwhW0NEQVRBWy5Ne2ZpbGw6I2ZlZmVmZX0uTntmaWxsOiMyMzFmMjB9Lk97ZmlsbDojNjI2MzY2fS5Qe3N0cm9rZTojNjI2MzY2fS5Re3N0cm9rZS1saW5lam9pbjpyb3VuZH0uUntzdHJva2UtbGluZWNhcDpyb3VuZH1dXT48L3N0eWxlPjxnIGZpbGw9Im5vbmUiIHN0cm9rZS13aWR0aD0iMyIgY2xhc3M9IlAgUSI+PHBhdGggZD0iTTMwLjggNjUuNTY3bDI1LjUxMy0xMy41NDMuMDAzIDMuODctMjUuNTE0IDEzLjU0M3oiLz48cGF0aCBkPSJNMS41IDQ3Ljk2N2wyNS41MTQtMTMuNTQgMjkuMjkgMTcuNTk4TDMwLjggNjUuNTY4eiIvPjxwYXRoIGQ9Ik0zMC44IDY1LjU2N2wuMDAyIDMuODctMjkuMjktMTcuNTk4LS4wMDMtMy44N3oiLz48cGF0aCBkPSJNMS41IDQ3Ljk2N2wyOS4zIDE3LjYuMDAyIDMuODY4IiBjbGFzcz0iUiIvPjxwYXRoIGQ9Ik02NC40OSAyMC41bDMuNTItLjU5Mi04LjE5NCAzMi41MDQtMy41MTguNTk0eiIvPjxwYXRoIGQ9Ik0zNS4zNCAyLjA5MmwzLjUyLS41OTJMNjguMDEgMTkuOTA4bC0zLjUyLjU5M3oiLz48cGF0aCBkPSJNNjQuNDkgMjAuNUw1Ni4zIDUzLjAwNyAyNy4xNDYgMzQuNiAzNS4zNCAyLjA5M3oiLz48L2c+PHBhdGggZD0iTTMwLjggNjUuNTY3bDI1LjUxMy0xMy41NDMuMDAzIDMuODctMjUuNTE0IDEzLjU0M3oiIGZpbGw9IiM4OThiOGUiLz48cGF0aCBkPSJNMS41IDQ3Ljk2N2wyNS41MTQtMTMuNTQgMjkuMjkgMTcuNTk4TDMwLjggNjUuNTY3eiIgZmlsbD0iI2JiYmRiZiIvPjxwYXRoIGQ9Ik0zMC44IDY1LjU2N2wuMDAyIDMuODctMjkuMjktMTcuNTk4LS4wMDMtMy44N3oiIGZpbGw9IiNiM2I1YjciLz48cGF0aCBkPSJNMS44OTYgNDguMjA1TDMwLjggNjUuNTY2bC4wMDIgMy40NjUiIGZpbGw9Im5vbmUiIHN0cm9rZT0iI2UxZTJlMyIgY2xhc3M9IlEgUiIvPjxnIGZpbGw9IiM4OThiOGUiPjxwYXRoIGQ9Ik02NC40OSAyMC41bDMuNTItLjU5Mi04LjE5NCAzMi41MDQtMy41MTguNTk0eiIvPjxwYXRoIGQ9Ik0zNS4zNCAyLjA5MmwzLjUyLS41OTJMNjguMDEgMTkuOTA4bC0zLjUyLjU5MnoiLz48L2c+PHBhdGggZD0iTTY0LjQ5IDIwLjVMNTYuMyA1My4wMDYgMjcuMTQ2IDM0LjU5OCAzNS4zNCAyLjA5MnoiIGZpbGw9IiNiM2I1YjciLz48cGF0aCBkPSJNNjEuNTkyIDIxLjM3bC03LjEwNSAyOC4xOTItMjUuMjg1LTE1Ljk2NyA3LjEwNi0yOC4xOTN6IiBjbGFzcz0iTSIvPjxwYXRoIGQ9Ik02MS41OTIgMjEuMzdsLTcuMTA1IDI4LjE5Mi0yNS4yODUtMTUuOTY3IDcuMTA2LTI4LjE5M3oiIGZpbGw9Im5vbmUiIHN0cm9rZS13aWR0aD0iMS4xODQiIGNsYXNzPSJQIi8+PHBhdGggZD0iTTU4Ljg2NCAyMi4xOTZjLS45Mi0uNTQtMTguNDItMTAuNzc4LTIwLjA2OC05LTEuMjU1IDEuMzE1LTUuMzU0IDEyLjY5Mi01LjU3IDEzLjI5MkwzNy42OCA4Ljk2bDIxLjE4NSAxMy4yMzd6IiBmaWxsPSIjYzRjYWNlIi8+PHBhdGggZD0iTTE2LjA1IDUzLjNsNC4yNjUtMi4yNjYgNi41NzQgMy45NTItNC4yNjYgMi4yNjN6IiBjbGFzcz0iTSIvPjxnIGZpbGw9Im5vbmUiPjxwYXRoIGQ9Ik0xNi4wNSA1My4zbDQuMjY1LTIuMjY2IDYuNTc0IDMuOTUyLTQuMjY2IDIuMjYzeiIgc3Ryb2tlPSIjNjM2NDY2Ii8+PHBhdGggZD0iTTU2LjQ2NyA1My4yNDhMMjYuNzMgMzQuMjciIGNsYXNzPSJQIFEgUiIvPjwvZz48cGF0aCBkPSJNMTYuMzQyIDQzLjQ0NmwxLjQ1Ny0uNzczdi4yOGwtMS40NTcuNzczeiIgY2xhc3M9Ik4iLz48dXNlIHhsaW5rOmhyZWY9IiNCIiBjbGFzcz0iTSIvPjxwYXRoIGQ9Ik0xNi4zNDIgNDMuNDQ2di4yOGwtMS4yNTgtLjc1NFY0Mi43eiIgY2xhc3M9Ik8iLz48dXNlIHhsaW5rOmhyZWY9IiNDIiBjbGFzcz0iTiIvPjx1c2UgeGxpbms6aHJlZj0iI0QiIGNsYXNzPSJNIi8+PHBhdGggZD0iTTE4LjIgNDQuNTYzdi4yODNsLTEuMjU2LS43NTZ2LS4yODN6IiBjbGFzcz0iTyIvPjxwYXRoIGQ9Ik0yMC4xNTQgNDUuNzM3bDEuNDU3LS43NzMuMDAyLjI4LTEuNDYuNzc1eiIgY2xhc3M9Ik4iLz48cGF0aCBkPSJNMTguODk4IDQ0Ljk4bDEuNDU3LS43NzMgMS4yNTYuNzU1LTEuNDU3Ljc3NHoiIGNsYXNzPSJNIi8+PHBhdGggZD0iTTIwLjE1NCA0NS43Mzd2LjI4M2wtMS4yNTYtLjc1NnYtLjI4M3oiIGNsYXNzPSJPIi8+PHBhdGggZD0iTTIyLjAyIDQ2Ljg1OGwxLjQ1Ny0uNzczLjAwMi4yODMtMS40Ni43NzN6IiBjbGFzcz0iTiIvPjxwYXRoIGQ9Ik0yMC43NjYgNDYuMTA0bDEuNDU3LS43NzUgMS4yNTYuNzU1LTEuNDU3Ljc3NHoiIGNsYXNzPSJNIi8+PHVzZSB4bGluazpocmVmPSIjRSIgY2xhc3M9Ik8iLz48dXNlIHhsaW5rOmhyZWY9IiNDIiB4PSI1Ljc1IiB5PSIzLjQ1MyIgY2xhc3M9Ik4iLz48dXNlIHhsaW5rOmhyZWY9IiNGIiBjbGFzcz0iTSIvPjx1c2UgeGxpbms6aHJlZj0iI0UiIHg9IjEuOTMiIHk9IjEuMTU4IiBjbGFzcz0iTyIvPjxwYXRoIGQ9Ik0yNS44MTYgNDkuMTRsMS40Ni0uNzczdi4yOGwtMS40Ni43NzN6IiBjbGFzcz0iTiIvPjxwYXRoIGQ9Ik0yNC41NTMgNDguMzhsMS40Ni0uNzczIDEuMjY0Ljc2LTEuNDYuNzc0eiIgY2xhc3M9Ik0iLz48cGF0aCBkPSJNMjUuODE2IDQ5LjE0di4yOGwtMS4yNjQtLjc1OHYtLjI4M3oiIGNsYXNzPSJPIi8+PHBhdGggZD0iTTI3Ljc3IDUwLjMxM2wxLjQ1Ny0uNzc1LjAwMi4yODMtMS40Ni43NzN6IiBjbGFzcz0iTiIvPjxwYXRoIGQ9Ik0yNi41MTIgNDkuNTU3bDEuNDYtLjc3MyAxLjI1Ni43NTMtMS40NTcuNzc2eiIgY2xhc3M9Ik0iLz48cGF0aCBkPSJNMjcuNzcgNTAuMzEzdi4yOGwtMS4yNTYtLjc1NC0uMDAyLS4yODN6IiBjbGFzcz0iTyIvPjxwYXRoIGQ9Ik0yOS42MyA1MS40M2wxLjQ1Ny0uNzczdi4yOGwtMS40NTcuNzc1eiIgY2xhc3M9Ik4iLz48cGF0aCBkPSJNMjguMzczIDUwLjY3NGwxLjQ1Ny0uNzczIDEuMjU4Ljc1NS0xLjQ1Ny43NzR6IiBjbGFzcz0iTSIvPjxwYXRoIGQ9Ik0yOS42MyA1MS40M3YuMjgzbC0xLjI1OC0uNzU2di0uMjgzeiIgY2xhc3M9Ik8iLz48cGF0aCBkPSJNMzEuNDYgNTIuNTNsMS40NTctLjc3MnYuMjhsLTEuNDU3Ljc3NnoiIGNsYXNzPSJOIi8+PHVzZSB4bGluazpocmVmPSIjQiIgeD0iMTUuMTE5IiB5PSI5LjA3NCIgY2xhc3M9Ik0iLz48cGF0aCBkPSJNMzEuNDYgNTIuNTN2LjI4NGwtMS4yNTgtLjc1N3YtLjI4M3oiIGNsYXNzPSJPIi8+PHVzZSB4bGluazpocmVmPSIjQyIgeD0iMTUuMTIiIHk9IjkuMDg0IiBjbGFzcz0iTiIvPjx1c2UgeGxpbms6aHJlZj0iI0YiIHg9IjkuMzcxIiB5PSI1LjYzMSIgY2xhc3M9Ik0iLz48dXNlIHhsaW5rOmhyZWY9IiNFIiB4PSIxMS4zIiB5PSI2Ljc4OSIgY2xhc3M9Ik8iLz48dXNlIHhsaW5rOmhyZWY9IiNDIiB4PSIxNy4wNzMiIHk9IjEwLjI1NyIgY2xhc3M9Ik4iLz48cGF0aCBkPSJNMzQuMDE4IDU0LjA2N2wxLjQ1Ny0uNzc1IDEuMjU4Ljc1NS0xLjQ2Ljc3NHoiIGNsYXNzPSJNIi8+PHVzZSB4bGluazpocmVmPSIjRSIgeD0iMTMuMjUzIiB5PSI3Ljk2MiIgY2xhc3M9Ik8iLz48cGF0aCBkPSJNMzcuMTQgNTUuOTQ0bDEuNDYtLjc3NXYuMjgzbC0xLjQ2Ljc3M3oiIGNsYXNzPSJOIi8+PHBhdGggZD0iTTM1Ljg4NSA1NS4xODhsMS40NTctLjc3MyAxLjI1OC43NTMtMS40Ni43NzZ6IiBjbGFzcz0iTSIvPjxwYXRoIGQ9Ik0zNy4xNCA1NS45NDR2LjI4bC0xLjI1Ni0uNzU0di0uMjgzeiIgY2xhc3M9Ik8iLz48cGF0aCBkPSJNMzkuMDY4IDU3LjEwMmwxLjQ2LS43NzN2LjI4bC0xLjQ2Ljc3M3oiIGNsYXNzPSJOIi8+PHVzZSB4bGluazpocmVmPSIjRCIgeD0iMjAuODY4IiB5PSIxMi41MzkiIGNsYXNzPSJNIi8+PHBhdGggZD0iTTM5LjA2OCA1Ny4xMDJ2LjI4bC0xLjI1Ni0uNzU0di0uMjgzeiIgY2xhc3M9Ik8iLz48cGF0aCBkPSJNNDAuODkzIDU4LjE5N2wxLjQ1Ny0uNzczLjAwMi4yOC0xLjQ2Ljc3M3oiIGNsYXNzPSJOIi8+PHVzZSB4bGluazpocmVmPSIjQiIgeD0iMjQuNTUxIiB5PSIxNC43NDIiIGNsYXNzPSJNIi8+PHBhdGggZD0iTTQwLjg5MyA1OC4xOTd2LjI4bC0xLjI1Ni0uNzU0LS4wMDItLjI4M3oiIGNsYXNzPSJPIi8+PHBhdGggZD0iTTE4LjM0MiA0Mi4zMmwxLjQ1Ny0uNzczdi4yOGwtMS40NTcuNzczeiIgY2xhc3M9Ik4iLz48dXNlIHhsaW5rOmhyZWY9IiNCIiB4PSIyIiB5PSItMS4xMzUiIGNsYXNzPSJNIi8+PHBhdGggZD0iTTE4LjM0MiA0Mi4zMnYuMjhsLTEuMjU4LS43NTR2LS4yODN6IiBjbGFzcz0iTyIvPjx1c2UgeGxpbms6aHJlZj0iI0MiIHg9IjIiIHk9Ii0xLjEyNSIgY2xhc3M9Ik4iLz48dXNlIHhsaW5rOmhyZWY9IiNEIiB4PSIyIiB5PSItMS4xMjUiIGNsYXNzPSJNIi8+PHBhdGggZD0iTTIwLjIgNDMuNDM4di4yODNsLTEuMjU2LS43NTZ2LS4yODN6IiBjbGFzcz0iTyIvPjxwYXRoIGQ9Ik0yMi4xNTQgNDQuNjEybDEuNDU3LS43NzMuMDAyLjI4LTEuNDYuNzc1eiIgY2xhc3M9Ik4iLz48cGF0aCBkPSJNMjAuODk4IDQzLjg1NmwxLjQ1Ny0uNzczIDEuMjU2Ljc1NS0xLjQ1Ny43NzR6IiBjbGFzcz0iTSIvPjxwYXRoIGQ9Ik0yMi4xNTQgNDQuNjEydi4yODNsLTEuMjU2LS43NTZ2LS4yODN6IiBjbGFzcz0iTyIvPjxwYXRoIGQ9Ik0yNC4wMiA0NS43MzNsMS40NTctLjc3My4wMDIuMjgzLTEuNDYuNzczeiIgY2xhc3M9Ik4iLz48cGF0aCBkPSJNMjIuNzY2IDQ0Ljk4bDEuNDU3LS43NzUgMS4yNTYuNzU1LTEuNDU3Ljc3NHoiIGNsYXNzPSJNIi8+PHVzZSB4bGluazpocmVmPSIjRSIgeD0iMiIgeT0iLTEuMTI1IiBjbGFzcz0iTyIvPjx1c2UgeGxpbms6aHJlZj0iI0MiIHg9IjcuNzUiIHk9IjIuMzI3IiBjbGFzcz0iTiIvPjx1c2UgeGxpbms6aHJlZj0iI0YiIHg9IjIiIHk9Ii0xLjEyNSIgY2xhc3M9Ik0iLz48dXNlIHhsaW5rOmhyZWY9IiNFIiB4PSIzLjkzIiB5PSIwLjAzMiIgY2xhc3M9Ik8iLz48cGF0aCBkPSJNMjcuODE2IDQ4LjAxNGwxLjQ2LS43NzN2LjI4bC0xLjQ2Ljc3M3oiIGNsYXNzPSJOIi8+PHBhdGggZD0iTTI2LjU1MyA0Ny4yNTRsMS40Ni0uNzczIDEuMjY0Ljc2LTEuNDYuNzc0eiIgY2xhc3M9Ik0iLz48cGF0aCBkPSJNMjcuODE2IDQ4LjAxNHYuMjhsLTEuMjY0LS43NTh2LS4yODN6IiBjbGFzcz0iTyIvPjxwYXRoIGQ9Ik0yOS43NyA0OS4xODhsMS40NTctLjc3NS4wMDIuMjgzLTEuNDYuNzczeiIgY2xhc3M9Ik4iLz48cGF0aCBkPSJNMjguNTEyIDQ4LjQzMmwxLjQ2LS43NzMgMS4yNTYuNzUzLTEuNDU3Ljc3NnoiIGNsYXNzPSJNIi8+PHBhdGggZD0iTTI5Ljc3IDQ5LjE4OHYuMjhsLTEuMjU2LS43NTQtLjAwMi0uMjgzeiIgY2xhc3M9Ik8iLz48cGF0aCBkPSJNMzEuNjMgNTAuMzA1bDEuNDU3LS43NzN2LjI4bC0xLjQ1Ny43NzV6IiBjbGFzcz0iTiIvPjxwYXRoIGQ9Ik0zMC4zNzMgNDkuNTVsMS40NTctLjc3MyAxLjI1OC43NTUtMS40NTcuNzc0eiIgY2xhc3M9Ik0iLz48cGF0aCBkPSJNMzEuNjMgNTAuMzA1di4yODNsLTEuMjU4LS43NTZ2LS4yODN6IiBjbGFzcz0iTyIvPjxwYXRoIGQ9Ik0zMy40NiA1MS40MDRsMS40NTctLjc3MnYuMjhsLTEuNDU3Ljc3NnoiIGNsYXNzPSJOIi8+PHVzZSB4bGluazpocmVmPSIjQiIgeD0iMTcuMTE5IiB5PSI3Ljk1IiBjbGFzcz0iTSIvPjxwYXRoIGQ9Ik0zMy40NiA1MS40MDR2LjI4NGwtMS4yNTgtLjc1N3YtLjI4M3oiIGNsYXNzPSJPIi8+PHVzZSB4bGluazpocmVmPSIjQyIgeD0iMTcuMTIiIHk9IjcuOTU5IiBjbGFzcz0iTiIvPjx1c2UgeGxpbms6aHJlZj0iI0YiIHg9IjExLjM3MSIgeT0iNC41MDYiIGNsYXNzPSJNIi8+PHVzZSB4bGluazpocmVmPSIjRSIgeD0iMTMuMyIgeT0iNS42NjQiIGNsYXNzPSJPIi8+PHVzZSB4bGluazpocmVmPSIjQyIgeD0iMTkuMDczIiB5PSI5LjEzMyIgY2xhc3M9Ik4iLz48cGF0aCBkPSJNMzYuMDE4IDUyLjk0MmwxLjQ1Ny0uNzc1IDEuMjU4Ljc1NS0xLjQ2Ljc3NHoiIGNsYXNzPSJNIi8+PHVzZSB4bGluazpocmVmPSIjRSIgeD0iMTUuMjUzIiB5PSI2LjgzOCIgY2xhc3M9Ik8iLz48cGF0aCBkPSJNMzkuMTQgNTQuODJsMS40Ni0uNzc1di4yODNsLTEuNDYuNzczeiIgY2xhc3M9Ik4iLz48cGF0aCBkPSJNMzcuODg1IDU0LjA2M2wxLjQ1Ny0uNzczIDEuMjU4Ljc1My0xLjQ2Ljc3NnoiIGNsYXNzPSJNIi8+PHBhdGggZD0iTTM5LjE0IDU0Ljgydi4yOGwtMS4yNTYtLjc1NHYtLjI4M3oiIGNsYXNzPSJPIi8+PHBhdGggZD0iTTQxLjA2OCA1NS45NzdsMS40Ni0uNzczdi4yOGwtMS40Ni43NzN6IiBjbGFzcz0iTiIvPjx1c2UgeGxpbms6aHJlZj0iI0QiIHg9IjIyLjg2OCIgeT0iMTEuNDEzIiBjbGFzcz0iTSIvPjxwYXRoIGQ9Ik00MS4wNjggNTUuOTc3di4yOGwtMS4yNTYtLjc1NHYtLjI4M3oiIGNsYXNzPSJPIi8+PHBhdGggZD0iTTQyLjg5MyA1Ny4wNzJsMS40NTctLjc3My4wMDIuMjgtMS40Ni43NzN6IiBjbGFzcz0iTiIvPjx1c2UgeGxpbms6aHJlZj0iI0IiIHg9IjI2LjU1MSIgeT0iMTMuNjE3IiBjbGFzcz0iTSIvPjxwYXRoIGQ9Ik00Mi44OTMgNTcuMDcydi4yOGwtMS4yNTYtLjc1NC0uMDAyLS4yODN6IiBjbGFzcz0iTyIvPjxwYXRoIGQ9Ik0yMC40NjcgNDEuMTk2bDEuNDU3LS43NzN2LjI4bC0xLjQ1Ny43NzN6IiBjbGFzcz0iTiIvPjx1c2UgeGxpbms6aHJlZj0iI0IiIHg9IjQuMTI2IiB5PSItMi4yNiIgY2xhc3M9Ik0iLz48cGF0aCBkPSJNMjAuNDY3IDQxLjE5NnYuMjhsLTEuMjU4LS43NTR2LS4yODN6IiBjbGFzcz0iTyIvPjx1c2UgeGxpbms6aHJlZj0iI0MiIHg9IjQuMTI2IiB5PSItMi4yNSIgY2xhc3M9Ik4iLz48dXNlIHhsaW5rOmhyZWY9IiNEIiB4PSI0LjEyNSIgeT0iLTIuMjUiIGNsYXNzPSJNIi8+PHBhdGggZD0iTTIyLjMyNiA0Mi4zMTN2LjI4M2wtMS4yNTYtLjc1NnYtLjI4M3oiIGNsYXNzPSJPIi8+PHBhdGggZD0iTTI0LjI4IDQzLjQ4N2wxLjQ1Ny0uNzczLjAwMi4yOC0xLjQ2Ljc3NXoiIGNsYXNzPSJOIi8+PHBhdGggZD0iTTIzLjAyMyA0Mi43M2wxLjQ1Ny0uNzczIDEuMjU2Ljc1NS0xLjQ1Ny43NzR6IiBjbGFzcz0iTSIvPjxwYXRoIGQ9Ik0yNC4yOCA0My40ODd2LjI4M2wtMS4yNTYtLjc1NnYtLjI4M3oiIGNsYXNzPSJPIi8+PHBhdGggZD0iTTI2LjE0NiA0NC42MDhsMS40NTctLjc3My4wMDIuMjgzLTEuNDYuNzczeiIgY2xhc3M9Ik4iLz48cGF0aCBkPSJNMjQuODkgNDMuODU0bDEuNDU3LS43NzUgMS4yNTYuNzU1LTEuNDU3Ljc3NHoiIGNsYXNzPSJNIi8+PHVzZSB4bGluazpocmVmPSIjRSIgeD0iNC4xMjYiIHk9Ii0yLjI1IiBjbGFzcz0iTyIvPjx1c2UgeGxpbms6aHJlZj0iI0MiIHg9IjkuODc0IiB5PSIxLjIwMyIgY2xhc3M9Ik4iLz48dXNlIHhsaW5rOmhyZWY9IiNGIiB4PSI0LjEyNSIgeT0iLTIuMjUiIGNsYXNzPSJNIi8+PHVzZSB4bGluazpocmVmPSIjRSIgeD0iNi4wNTQiIHk9Ii0xLjA5MiIgY2xhc3M9Ik8iLz48cGF0aCBkPSJNMjkuOTQgNDYuODlsMS40Ni0uNzczdi4yOGwtMS40Ni43NzN6IiBjbGFzcz0iTiIvPjxwYXRoIGQ9Ik0yOC42NzggNDYuMTNsMS40Ni0uNzczIDEuMjY0Ljc2LTEuNDYuNzc0eiIgY2xhc3M9Ik0iLz48cGF0aCBkPSJNMjkuOTQgNDYuODl2LjI4bC0xLjI2NC0uNzU4di0uMjgzeiIgY2xhc3M9Ik8iLz48cGF0aCBkPSJNMzEuODk1IDQ4LjA2M2wxLjQ1Ny0uNzc1LjAwMi4yODMtMS40Ni43NzN6IiBjbGFzcz0iTiIvPjxwYXRoIGQ9Ik0zMC42MzcgNDcuMzA3bDEuNDYtLjc3MyAxLjI1Ni43NTMtMS40NTcuNzc2eiIgY2xhc3M9Ik0iLz48cGF0aCBkPSJNMzEuODk1IDQ4LjA2M3YuMjhMMzAuNjQgNDcuNmwtLjAwMi0uMjgzeiIgY2xhc3M9Ik8iLz48cGF0aCBkPSJNMzMuNzU2IDQ5LjE4bDEuNDU3LS43NzN2LjI4bC0xLjQ1Ny43NzV6IiBjbGFzcz0iTiIvPjxwYXRoIGQ9Ik0zMi40OTggNDguNDI0bDEuNDU3LS43NzMgMS4yNTguNzU1LTEuNDU3Ljc3NHoiIGNsYXNzPSJNIi8+PHBhdGggZD0iTTMzLjc1NiA0OS4xOHYuMjgzbC0xLjI1OC0uNzU2di0uMjgzeiIgY2xhc3M9Ik8iLz48cGF0aCBkPSJNMzUuNTg2IDUwLjI4bDEuNDU3LS43NzJ2LjI4bC0xLjQ1Ny43NzZ6IiBjbGFzcz0iTiIvPjx1c2UgeGxpbms6aHJlZj0iI0IiIHg9IjE5LjI0NCIgeT0iNi44MjQiIGNsYXNzPSJNIi8+PHBhdGggZD0iTTM1LjU4NiA1MC4yOHYuMjg0bC0xLjI1OC0uNzU3di0uMjgzeiIgY2xhc3M9Ik8iLz48dXNlIHhsaW5rOmhyZWY9IiNDIiB4PSIxOS4yNDUiIHk9IjYuODM0IiBjbGFzcz0iTiIvPjx1c2UgeGxpbms6aHJlZj0iI0YiIHg9IjEzLjQ5NyIgeT0iMy4zODEiIGNsYXNzPSJNIi8+PHVzZSB4bGluazpocmVmPSIjRSIgeD0iMTUuNDI1IiB5PSI0LjUzOSIgY2xhc3M9Ik8iLz48dXNlIHhsaW5rOmhyZWY9IiNDIiB4PSIyMS4xOTgiIHk9IjguMDA3IiBjbGFzcz0iTiIvPjxwYXRoIGQ9Ik0zOC4xNDMgNTEuODE3bDEuNDU3LS43NzUgMS4yNTguNzU1LTEuNDYuNzc0eiIgY2xhc3M9Ik0iLz48dXNlIHhsaW5rOmhyZWY9IiNFIiB4PSIxNy4zNzgiIHk9IjUuNzEyIiBjbGFzcz0iTyIvPjxwYXRoIGQ9Ik00MS4yNjYgNTMuNjk0bDEuNDYtLjc3NXYuMjgzbC0xLjQ2Ljc3M3oiIGNsYXNzPSJOIi8+PHBhdGggZD0iTTQwIDUyLjkzOGwxLjQ1Ny0uNzczIDEuMjU4Ljc1My0xLjQ2Ljc3NnoiIGNsYXNzPSJNIi8+PHBhdGggZD0iTTQxLjI2NiA1My42OTR2LjI4TDQwIDUzLjIydi0uMjgzeiIgY2xhc3M9Ik8iLz48cGF0aCBkPSJNNDMuMTkzIDU0Ljg1MmwxLjQ2LS43NzN2LjI4bC0xLjQ2Ljc3M3oiIGNsYXNzPSJOIi8+PHVzZSB4bGluazpocmVmPSIjRCIgeD0iMjQuOTkzIiB5PSIxMC4yODkiIGNsYXNzPSJNIi8+PHBhdGggZD0iTTQzLjE5MyA1NC44NTJ2LjI4bC0xLjI1Ni0uNzU0di0uMjgzeiIgY2xhc3M9Ik8iLz48cGF0aCBkPSJNNDUuMDE4IDU1Ljk0N2wxLjQ1Ny0uNzczLjAwMi4yOC0xLjQ2Ljc3M3oiIGNsYXNzPSJOIi8+PHVzZSB4bGluazpocmVmPSIjQiIgeD0iMjguNjc2IiB5PSIxMi40OTIiIGNsYXNzPSJNIi8+PHBhdGggZD0iTTQ1LjAxOCA1NS45NDd2LjI4bC0xLjI1Ni0uNzU0LS4wMDItLjI4M3oiIGNsYXNzPSJPIi8+PHBhdGggZD0iTTE0Ljk1IDQ1LjEybDEuNDYtLjc3M3YuMjc1bC0xLjQ2Ljc3M3oiIGNsYXNzPSJOIi8+PHBhdGggZD0iTTEzLjY5IDQ0LjM2N2wxLjQ2LS43NzUgMS4yNTguNzU1LTEuNDYuNzc0eiIgY2xhc3M9Ik0iLz48cGF0aCBkPSJNMTQuOTUgNDUuMTJ2LjI3NWwtMS4yNTYtLjc1NS0uMDAyLS4yNzR6IiBjbGFzcz0iTyIvPjxwYXRoIGQ9Ik0xNi43MiA0Ni4xODRsMS40NTctLjc3M3YuMjc1bC0xLjQ1Ny43NzN6IiBjbGFzcz0iTiIvPjxwYXRoIGQ9Ik0xNS40NiA0NS40M2wxLjQ2LS43NzMgMS4yNTYuNzUzLTEuNDU3Ljc3NHoiIGNsYXNzPSJNIi8+PHBhdGggZD0iTTE2LjcyIDQ2LjE4NHYuMjc1bC0xLjI1OC0uNzU1di0uMjc0eiIgY2xhc3M9Ik8iLz48cGF0aCBkPSJNMTguNTc4IDQ3LjMwM2wxLjQ2LS43NzN2LjI3M2wtMS40Ni43NzN6IiBjbGFzcz0iTiIvPjx1c2UgeGxpbms6aHJlZj0iI0QiIHg9IjAuMzc3IiB5PSIyLjc0IiBjbGFzcz0iTSIvPjxwYXRoIGQ9Ik0xOC41NzggNDcuMzAzdi4yNzNsLTEuMjU2LS43NTN2LS4yNzZ6IiBjbGFzcz0iTyIvPjxwYXRoIGQ9Ik0zNC4xMzcgNTYuNjJsMS40Ni0uNzczdi4yNzVsLTEuNDYuNzczeiIgY2xhc3M9Ik4iLz48cGF0aCBkPSJNMzIuODggNTUuODY3bDEuNDYtLjc3NSAxLjI1OC43NTUtMS40Ni43NzR6IiBjbGFzcz0iTSIvPjxwYXRoIGQ9Ik0zNC4xMzcgNTYuNjJ2LjI3NWwtMS4yNTYtLjc1NXYtLjI3NHoiIGNsYXNzPSJPIi8+PHBhdGggZD0iTTM1LjkwNiA1Ny42ODRsMS40NTctLjc3M3YuMjc1bC0xLjQ1Ny43NzN6IiBjbGFzcz0iTiIvPjxwYXRoIGQ9Ik0zNC42NDggNTYuOTNsMS40Ni0uNzczIDEuMjU2Ljc1My0xLjQ1Ny43NzR6IiBjbGFzcz0iTSIvPjxwYXRoIGQ9Ik0zNS45MDYgNTcuNjg0di4yNzVsLTEuMjU4LS43NTV2LS4yNzR6IiBjbGFzcz0iTyIvPjxwYXRoIGQ9Ik0zNy43NjYgNTguODAzbDEuNDYtLjc3M3YuMjczbC0xLjQ2Ljc3M3oiIGNsYXNzPSJOIi8+PHVzZSB4bGluazpocmVmPSIjRCIgeD0iMTkuNTU1IiB5PSIxNC4yNCIgY2xhc3M9Ik0iLz48cGF0aCBkPSJNMzcuNzY2IDU4LjgwM3YuMjczbC0xLjI1Ni0uNzUzdi0uMjc2eiIgY2xhc3M9Ik8iLz48cGF0aCBkPSJNMzIuMTUgNTUuNDdsMS40Ni0uNzczdi4yNzNsLTEuNDYuNzc1eiIgY2xhc3M9Ik4iLz48cGF0aCBkPSJNMTkuMjU2IDQ3LjcybDEuNDYtLjc3M0wzMy42IDU0LjY5NmwtMS40Ni43NzN6IiBjbGFzcz0iTSIvPjxwYXRoIGQ9Ik0zMi4xNSA1NS40N3YuMjc1bC0xMi44OTUtNy43NDh2LS4yNzV6IiBjbGFzcz0iTyIvPjxwYXRoIGQ9Ik0yMi42NzggMzkuOTM2bDEuNDU3LS43NzN2LjI4M2wtMS40NTcuNzczeiIgY2xhc3M9Ik4iLz48cGF0aCBkPSJNMjEuNDIgMzkuMTgybDEuNDYtLjc3MyAxLjI1Ni43NTMtMS40NTcuNzc0eiIgY2xhc3M9Ik0iLz48cGF0aCBkPSJNMjIuNjc4IDM5LjkzNnYuMjgzbC0xLjI1OC0uNzU2di0uMjh6IiBjbGFzcz0iTyIvPjxwYXRoIGQ9Ik0yNC41MzcgNDEuMDU1bDEuNDYtLjc3M3YuMjhsLTEuNDYuNzczeiIgY2xhc3M9Ik4iLz48dXNlIHhsaW5rOmhyZWY9IiNEIiB4PSI2LjMzNSIgeT0iLTMuNTA3IiBjbGFzcz0iTSIvPjxwYXRoIGQ9Ik0yNC41MzcgNDEuMDU1di4yOGwtMS4yNTYtLjc1NFY0MC4zeiIgY2xhc3M9Ik8iLz48cGF0aCBkPSJNMjYuNSA0Mi4yM2wxLjQ1Ny0uNzc1LjAwMi4yODMtMS40Ni43NzN6IiBjbGFzcz0iTiIvPjxwYXRoIGQ9Ik0yNS4yMzQgNDEuNDczbDEuNDU3LS43NzMgMS4yNTYuNzUzLTEuNDU3Ljc3NnoiIGNsYXNzPSJNIi8+PHBhdGggZD0iTTI2LjUgNDIuMjN2LjI4bC0xLjI1Ni0uNzU0di0uMjgzeiIgY2xhc3M9Ik8iLz48cGF0aCBkPSJNMjguMzU4IDQzLjM1bDEuNDU2LS43NzMuMDAyLjI4LTEuNDU4Ljc3NXoiIGNsYXNzPSJOIi8+PHBhdGggZD0iTTI3LjEwMiA0Mi41OTRsMS40NTctLjc3MyAxLjI1Ni43NTUtMS40NTcuNzc0eiIgY2xhc3M9Ik0iLz48cGF0aCBkPSJNMjguMzU4IDQzLjM1di4yODNsLTEuMjU3LS43NTZ2LS4yODN6IiBjbGFzcz0iTyIvPjx1c2UgeGxpbms6aHJlZj0iI0MiIHg9IjEyLjA4NSIgeT0iLTAuMDU1IiBjbGFzcz0iTiIvPjxwYXRoIGQ9Ik0yOS4wMyA0My43NTRsMS40NTctLjc3NSAxLjI1OC43NTUtMS40Ni43NzR6IiBjbGFzcz0iTSIvPjx1c2UgeGxpbms6aHJlZj0iI0UiIHg9IjguMjY1IiB5PSItMi4zNSIgY2xhc3M9Ik8iLz48cGF0aCBkPSJNMzIuMTUyIDQ1LjYzbDEuNDYtLjc3NXYuMjgzbC0xLjQ2Ljc3M3oiIGNsYXNzPSJOIi8+PHBhdGggZD0iTTMwLjg5IDQ0Ljg3bDEuNDYtLjc3MyAxLjI2NC43NTctMS40Ni43NzZ6IiBjbGFzcz0iTSIvPjxwYXRoIGQ9Ik0zMi4xNTIgNDUuNjN2LjI4bC0xLjI2NC0uNzU4di0uMjgzeiIgY2xhc3M9Ik8iLz48cGF0aCBkPSJNMzQuMTA1IDQ2LjgwM2wxLjQ1OC0uNzczLjAwMS4yODMtMS40Ni43NzN6IiBjbGFzcz0iTiIvPjxwYXRoIGQ9Ik0zMi44NDggNDYuMDVsMS40Ni0uNzc1IDEuMjU2Ljc1NS0xLjQ1Ny43NzR6IiBjbGFzcz0iTSIvPjxwYXRoIGQ9Ik0zNC4xMDUgNDYuODAzdi4yODNsLTEuMjU2LS43NTYtLjAwMi0uMjh6IiBjbGFzcz0iTyIvPjxwYXRoIGQ9Ik0zNS45NjcgNDcuOTIybDEuNDU3LS43NzV2LjI4M2wtMS40NTcuNzczeiIgY2xhc3M9Ik4iLz48cGF0aCBkPSJNMzQuNzEgNDcuMTY2bDEuNDU3LS43NzMgMS4yNTguNzUzLTEuNDU3Ljc3NnoiIGNsYXNzPSJNIi8+PHBhdGggZD0iTTM1Ljk2NyA0Ny45MjJ2LjI4bC0xLjI1OC0uNzU0di0uMjgzeiIgY2xhc3M9Ik8iLz48cGF0aCBkPSJNMzcuNzk3IDQ5LjAyMmwxLjQ1Ny0uNzczdi4yOGwtMS40NTcuNzczeiIgY2xhc3M9Ik4iLz48dXNlIHhsaW5rOmhyZWY9IiNCIiB4PSIyMS40NTYiIHk9IjUuNTY2IiBjbGFzcz0iTSIvPjxwYXRoIGQ9Ik0zNy43OTcgNDkuMDIydi4yOGwtMS4yNTgtLjc1NHYtLjI4M3oiIGNsYXNzPSJPIi8+PHVzZSB4bGluazpocmVmPSIjQyIgeD0iMjEuNDU2IiB5PSI1LjU3NyIgY2xhc3M9Ik4iLz48cGF0aCBkPSJNMzguNCA0OS4zODVsMS40NTctLjc3NSAxLjI1OC43NTUtMS40Ni43NzR6IiBjbGFzcz0iTSIvPjx1c2UgeGxpbms6aHJlZj0iI0UiIHg9IjE3LjYzNiIgeT0iMy4yODIiIGNsYXNzPSJPIi8+PHBhdGggZD0iTTQxLjYxIDUxLjMxM2wxLjQ2LS43NzN2LjI4bC0xLjQ2Ljc3NXoiIGNsYXNzPSJOIi8+PHVzZSB4bGluazpocmVmPSIjRCIgeD0iMjMuNDA5IiB5PSI2Ljc1IiBjbGFzcz0iTSIvPjxwYXRoIGQ9Ik00MS42MSA1MS4zMTN2LjI4M2wtMS4yNTYtLjc1NnYtLjI4M3oiIGNsYXNzPSJPIi8+PHVzZSB4bGluazpocmVmPSIjQyIgeD0iMjUuMjc3IiB5PSI3Ljg3MSIgY2xhc3M9Ik4iLz48cGF0aCBkPSJNNDIuMjIgNTEuNjhsMS40NTctLjc3NSAxLjI1OC43NTUtMS40Ni43NzR6IiBjbGFzcz0iTSIvPjx1c2UgeGxpbms6aHJlZj0iI0UiIHg9IjIxLjQ1NyIgeT0iNS41NzYiIGNsYXNzPSJPIi8+PHVzZSB4bGluazpocmVmPSIjQyIgeD0iMjcuMjA0IiB5PSI5LjAyOSIgY2xhc3M9Ik4iLz48dXNlIHhsaW5rOmhyZWY9IiNGIiB4PSIyMS40NTUiIHk9IjUuNTc2IiBjbGFzcz0iTSIvPjx1c2UgeGxpbms6aHJlZj0iI0UiIHg9IjIzLjM4NCIgeT0iNi43MzQiIGNsYXNzPSJPIi8+PHBhdGggZD0iTTQ3LjIzIDU0LjdsMS40NTctLjc3NS4wMDIuMjgzLTEuNDYuNzczeiIgY2xhc3M9Ik4iLz48cGF0aCBkPSJNNDUuOTcgNTMuOTM0bDEuNDYtLjc3MyAxLjI1Ni43NTMtMS40NTcuNzc2eiIgY2xhc3M9Ik0iLz48cGF0aCBkPSJNNDcuMjMgNTQuN3YuMjhsLTEuMjU2LS43NTYtLjAwMi0uMjh6IiBjbGFzcz0iTyIvPjxkZWZzID48cGF0aCBpZD0iQiIgZD0iTTE1LjA4NCA0Mi43bDEuNDYtLjc3MyAxLjI1Ni43NTUtMS40NTcuNzc0eiIvPjxwYXRoIGlkPSJDIiBkPSJNMTguMiA0NC41NjNsMS40Ni0uNzczdi4yODNsLTEuNDYuNzczeiIvPjxwYXRoIGlkPSJEIiBkPSJNMTYuOTQ1IDQzLjgwN2wxLjQ1Ny0uNzczIDEuMjU4Ljc1NS0xLjQ2Ljc3NHoiLz48cGF0aCBpZD0iRSIgZD0iTTIyLjAyIDQ2Ljg1OHYuMjgzbC0xLjI1Ni0uNzU2di0uMjh6Ii8+PHBhdGggaWQ9IkYiIGQ9Ik0yMi42OTMgNDcuMjYybDEuNDU3LS43NzMgMS4yNTguNzUzLTEuNDYuNzc0eiIvPjwvZGVmcz48L3N2Zz4=;" parent="1" vertex="1">
          <mxGeometry x="-1460" y="-860" width="89" height="91" as="geometry" />
        </mxCell>
        <mxCell id="Lh-iwgCYphF1HfvxAwnO-20" style="edgeStyle=orthogonalEdgeStyle;rounded=0;orthogonalLoop=1;jettySize=auto;html=1;entryX=0.5;entryY=0;entryDx=0;entryDy=0;" parent="1" source="Lh-iwgCYphF1HfvxAwnO-21" target="Lh-iwgCYphF1HfvxAwnO-30" edge="1">
          <mxGeometry relative="1" as="geometry">
            <mxPoint x="-1570" y="-280" as="targetPoint" />
          </mxGeometry>
        </mxCell>
        <mxCell id="Lh-iwgCYphF1HfvxAwnO-21" value="Dell Vostro 3670&lt;div&gt;HomeLab&lt;/div&gt;" style="image;points=[];aspect=fixed;html=1;align=center;shadow=0;dashed=0;image=data:image/svg+xml,PHN2ZyB4bWxucz0iaHR0cDovL3d3dy53My5vcmcvMjAwMC9zdmciIHZpZXdCb3g9IjAgMCA3MSA4OS42Ij48ZyBmaWxsPSJub25lIiBzdHJva2U9IiM2MjYzNjYiIHN0cm9rZS13aWR0aD0iMyIgc3Ryb2tlLWxpbmVqb2luPSJyb3VuZCI+PHBhdGggZD0iTTI0LjMgMzkuMjQybDQ1LjItMjR2NDguOWwtNDUuMSAyNHoiLz48cGF0aCBkPSJNMS41IDI1LjQ0Mmw0NS4yLTIzLjkgMjIuOCAxMy43LTQ1LjIgMjR6Ii8+PHBhdGggZD0iTTI0LjMgMzkuMjQybC4xIDQ4LjktMjIuOS0xMy43di00OXoiLz48L2c+PHBhdGggZD0iTTI0LjMgMzkuMmw0NS4yLTI0djQ5TDI0LjQgODguMXoiIGZpbGw9IiM4OThiOGUiLz48cGF0aCBkPSJNMS41IDI1LjVsNDUuMi0yNCAyMi44IDEzLjctNDUuMiAyNHoiIGZpbGw9IiNiYmJkYmYiLz48cGF0aCBkPSJNMjQuMyAzOS4ybC4xIDQ4LjlMMS41IDc0LjRWMjUuNXoiIGZpbGw9IiNiM2I1YjciLz48cGF0aCBkPSJNMi4yIDI1LjVsMjIuMyAxMy40djQ5IiBmaWxsPSJub25lIiBzdHJva2U9IiNkZmUwZGYiIHN0cm9rZS13aWR0aD0iLjc1IiBzdHJva2UtbGluZWNhcD0icm91bmQiIHN0cm9rZS1saW5lam9pbj0icm91bmQiLz48cGF0aCBkPSJNMjEuMyA0OS4zTDQgMzguOXYtNi41bDE3LjMgMTAuNHptMCA2LjJMNCA0NS4xdi0zLjdsMTcuMyAxMC40em0wIDE5LjJMNCA2NC4zdi0xLjdMMjEuMyA3M3ptMCAzLjhMNCA2OC4xdi0xLjdsMTcuMyAxMC40em0wIDRMNCA3Mi4xdi0xLjdsMTcuMyAxMC40eiIgZmlsbD0iI2ZlZmVmZSIvPjwvc3ZnPg==;" parent="1" vertex="1">
          <mxGeometry x="-1346" y="-860" width="71" height="90" as="geometry" />
        </mxCell>
        <mxCell id="Lh-iwgCYphF1HfvxAwnO-22" value="Desktop" style="image;points=[];aspect=fixed;html=1;align=center;shadow=0;dashed=0;image=data:image/svg+xml,PHN2ZyB4bWxucz0iaHR0cDovL3d3dy53My5vcmcvMjAwMC9zdmciIHZpZXdCb3g9IjAgMCA3NS42MDEgMTAzLjM4MiI+PHN0eWxlPjwhW0NEQVRBWy5Se2ZpbGw6I2ZlZmVmZX0uU3tmaWxsOiMyMzFmMjB9LlR7ZmlsbDojNjI2MzY2fS5Ve2ZpbGw6bm9uZX0uVntzdHJva2UtbGluZWpvaW46cm91bmR9Lld7c3Ryb2tlOiM2MjYzNjZ9Llh7ZmlsbDojODk4YjhlfS5Ze2ZpbGw6I2JiYmRiZn0uWntmaWxsOiNiM2I1Yjd9LmF7c3Ryb2tlLXdpZHRoOjN9LmJ7c3Ryb2tlOiNlMWUyZTN9LmN7c3Ryb2tlLWxpbmVjYXA6cm91bmR9XV0+PC9zdHlsZT48ZyBjbGFzcz0iVSBWIFcgYSI+PHBhdGggZD0iTTUwLjM0OCA4Mi41NDVsMTEuNzEtNi4yMTUuMDAzIDMuMjk3LTExLjcgNi4yMTd6Ii8+PHBhdGggZD0iTTIwLjQ1IDY0LjU4bDExLjcxLTYuMjE1IDI5LjkgMTcuOTY1LTExLjcxIDYuMjE1eiIvPjxwYXRoIGQ9Ik01MC4zNDggODIuNTQ1bC4wMDIgMy4zLTI5LjktMTcuOTY3VjY0LjU4eiIvPjwvZz48cGF0aCBkPSJNNTAuMzQ4IDgyLjU0NWwxMS43MS02LjIxNS4wMDMgMy4yOTctMTEuNyA2LjIxN3oiIGNsYXNzPSJYIi8+PHBhdGggZD0iTTIwLjQ1IDY0LjU4bDExLjcxLTYuMjE1IDI5LjkgMTcuOTY1LTExLjcxIDYuMjE1eiIgY2xhc3M9IlkiLz48cGF0aCBkPSJNNTAuMzQ4IDgyLjU0NWwuMDAyIDMuMy0yOS45LTE3Ljk2N1Y2NC41OHoiIGNsYXNzPSJaIi8+PGcgY2xhc3M9IlUgViI+PHBhdGggZD0iTTIwLjY5IDY0LjYxNGwyOS40IDE3LjY3djMuMjA1IiBjbGFzcz0iYiBjIi8+PGcgc3Ryb2tlLXdpZHRoPSIyLjY2OCIgY2xhc3M9IlciPjxwYXRoIGQ9Ik02OS4wNDQgMzYuODNsNS4xODYtMi43NTMuMDM2IDUwLjc3OEw2OS4wOCA4Ny42eiIvPjxwYXRoIGQ9Ik0xNC41NSA0LjA4OGw1LjE4Ny0yLjc1NEw3NC4yMyAzNC4wNzhsLTUuMTg2IDIuNzUzeiIvPjxwYXRoIGQ9Ik02OS4wNDQgMzYuODNsLjAzNSA1MC43OC01NC40OTMtMzIuNzQ0LS4wMzctNTAuNzc4eiIvPjwvZz48L2c+PHBhdGggZD0iTTY5LjA0MyAzNi44M2w1LjE4Ny0yLjc1My4wMzYgNTAuNzc4TDY5LjA4IDg3LjZ6IiBjbGFzcz0iWCIvPjxwYXRoIGQ9Ik0xNC41NSA0LjA4OGw1LjE4Ni0yLjc1NEw3NC4yMyAzNC4wNzhsLTUuMTg4IDIuNzUzeiIgY2xhc3M9IlkiLz48cGF0aCBkPSJNNjkuMDQzIDM2LjgzbC4wMzcgNTAuNzgtNTQuNDk1LTMyLjc0NC0uMDM1LTUwLjc3OHoiIGNsYXNzPSJaIi8+PHBhdGggZD0iTTY2LjE5IDgxLjkwM0wxNi41MjYgNTEuNjk4VjguNzgzTDY2LjE5IDM4Ljk4NXoiIGNsYXNzPSJSIi8+PGcgdHJhbnNmb3JtPSJ0cmFuc2xhdGUoMSAzLjM4MykiPjxwYXRoIGQ9Ik00Ni43NjQgMjcuMTk4TDYzLjI0NyAzNy4xbC4wOTIgOS4yMTZzLS4yOTMtNi42MDgtNS4xOTMtMTAuNzVjLTYuMjU2LTUuMjg2LTExLjM4Mi04LjM2OC0xMS4zODItOC4zNjgiIGZpbGw9IiNjNGNhY2UiLz48ZyBjbGFzcz0iVSI+PHBhdGggZD0iTTE0LjE4NCA1Mi41MzJsNTMuOSAzMi4zOCIgc3Ryb2tlPSIjNjM2NDY2IiBzdHJva2Utd2lkdGg9IjEuMTU2Ii8+PHBhdGggZD0iTTE0LjAwOC44NzVMNjguMDIzIDMzLjMzbC4wMzcgNTAuNDY1IiBzdHJva2Utd2lkdGg9Ii44ODkiIGNsYXNzPSJWIGIgYyIvPjwvZz48ZyB0cmFuc2Zvcm09InRyYW5zbGF0ZSg3MyA2NCkiPjxkZWZzPjxmaWx0ZXIgaWQ9IkEiIGZpbHRlclVuaXRzPSJ1c2VyU3BhY2VPblVzZSIgeD0iLjI2MSIgeT0iLjcyMyIgd2lkdGg9IjEuMjkiIGhlaWdodD0iMTMuMzQyIj48ZmVDb2xvck1hdHJpeCB2YWx1ZXM9IjEgMCAwIDAgMCAwIDEgMCAwIDAgMCAwIDEgMCAwIDAgMCAwIDEgMCIvPjwvZmlsdGVyPjwvZGVmcz48bWFzayBtYXNrVW5pdHM9InVzZXJTcGFjZU9uVXNlIiB4PSIuMjYxIiB5PSIuNzIzIiB3aWR0aD0iMS4yOSIgaGVpZ2h0PSIxMy4zNDIiIGlkPSJCIj48ZyBmaWx0ZXI9InVybCgjQSkiPjxwYXRoIGQ9Ik0uOTA2LjcyM0gxLjZ2MTMuMzQySC45MDZ6IiBmaWxsPSIjZmZmIi8+PC9nPjwvbWFzaz48cGF0aCBkPSJNLjkwNi43MjN2MTMuMzQyIiBtYXNrPSJ1cmwoI0IpIiBzdHJva2U9IiM2MzY0NjYiIHN0cm9rZS13aWR0aD0iMS4yOSIgY2xhc3M9IlUiLz48L2c+PHBhdGggZD0iTTQ4LjU1NiA5MC43OHMxLjM3NS0uNzM0IDIuNS0uNzY2IDIuNTE2LjY0IDIuNTE2LjY0IDEuMzc1LjczNCAyLjA0NiAxLjQzNy43Mi45ODUuNzY2IDEuMjM1LjAzLjgyOC0uMDQ3Ljk1My03Ljc1IDQuMDk0LTcuNzUgNC4wOTQtLjQ1My4yMDMtMS4xODcuMDkzLTItMS0yLjQwNy0xLjU3OC0uMzc1LTEuNDY4LS4zNzUtMS40NjguMDE2LTEuMDQ3IDEuMzktMi42Yy45MDYtMS4wOTQgMi41NDctMi4wMyAyLjU0Ny0yLjAzeiIgY2xhc3M9IlUgViBXIGEiLz48cGF0aCBkPSJNNDguNTU2IDkwLjc4czEuMzc1LS43MzQgMi41LS43NjYgMi41MTYuNjQgMi41MTYuNjQgMS4zNzcuNzM0IDIuMDQ2IDEuNDM3LjcyLjk4NS43NjYgMS4yMzUuMDMuODI4LS4wNDcuOTUzLTcuNzUgNC4wOTQtNy43NSA0LjA5NC0uNDUzLjIwMy0xLjE4Ny4wOTMtMi0xLTIuNDA3LTEuNTc4LS4zNzUtMS40NjgtLjM3NS0xLjQ2OC4wMTYtMS4wNDcgMS4zOS0yLjZjLjkwNi0xLjA5NCAyLjU0Ny0yLjAzIDIuNTQ3LTIuMDMiIGNsYXNzPSJZIi8+PHBhdGggZD0iTTQ4Ljc1NyA5OC4wN2MuMDEyLS4xLjg5LTIuNTUgMy43NjgtNC4xMDcgMi44ODQtMS41MTggMy41NDguMTIgMy41LS4yMjNsLS4wMDYuNTQ3LTcuMTkgMy44MzYiIGNsYXNzPSJYIi8+PHBhdGggZD0iTTQ2LjQ2MiA5Ni41MDZjLjE4Ny0uNzUgMS4yNjYtMi4zOSAxLjk5Mi0zLjE0czEuMzYtMS4yNDIgMi40Ni0xLjgwNCAyLjQzOC0uOTg1IDMuMDk0LS42NTcgMS41NyAxLjE1IDEuOTQ1IDEuNjQuMjggMS4wMDguMjggMS4wMDgtMS4zODItLjQ3LTIuMjAzLS4xODgtMi4xMzMuOTM4LTIuOTc2IDEuNzU4LTEuMTcyIDEuOS0xLjc1OCAyLjU3OC0xLjcxLjc3NC0xLjcxLjc3NC0xLjE0OC0uMjM1LTEuMjY2LS40NDYtLjA0Ni0uNzczLjE0LTEuNTIzIiBjbGFzcz0iWiIvPjxwYXRoIGQ9Ik00OC4zNyA5My44NjRsLS41MDQtLjMwM2MtLjkxOC45OTYtMS40NDUgMS45NzUtMS43IDIuNTI0bC41MDYuMzAyYy4yNTItLjU0OC43OC0xLjUzIDEuNjk3LTIuNTIzIiBmaWxsPSIjZTFlMmUzIi8+PGcgY2xhc3M9IlUgViBXIGEiPjxwYXRoIGQ9Ik0zMC40IDkxLjA5NWwxMS43MS02LjIxNXYzLjI5N2wtMTEuNzEgNi4yMTd6Ii8+PHBhdGggZD0iTS41IDczLjEzbDExLjcxLTYuMjE3IDI5LjkgMTcuOTY2LTExLjcxIDYuMjE1eiIvPjxwYXRoIGQ9Ik0zMC40IDkxLjA5NWwuMDAyIDMuMy0yOS45LTE3Ljk2NkwuNSA3My4xM3oiLz48L2c+PHBhdGggZD0iTTMwLjQgOTEuMDk1bDExLjcxLTYuMjE1djMuMjk3bC0xMS43MSA2LjIxN3oiIGNsYXNzPSJYIi8+PHBhdGggZD0iTS41IDczLjEzbDExLjcxLTYuMjE3IDI5LjkgMTcuOTY2LTExLjcxIDYuMjE1eiIgY2xhc3M9IlkiLz48cGF0aCBkPSJNMzAuNCA5MS4wOTVsLjAwMiAzLjMtMjkuOS0xNy45NjZMLjUgNzMuMTN6IiBjbGFzcz0iWiIvPjxwYXRoIGQ9Ik03LjY1NyA3Mi43ODRsMS40NTgtLjc3M3YuMjhsLTEuNDU4Ljc3NXoiIGNsYXNzPSJTIi8+PHBhdGggZD0iTTYuNCA3Mi4wMjhsMS40NTgtLjc3M0w5LjExNiA3MmwtMS40NTguNzc0eiIgY2xhc3M9IlIiLz48cGF0aCBkPSJNNy42NTcgNzIuNzg0di4yODNMNi40IDcyLjMxdi0uMjgzeiIgY2xhc3M9IlQiLz48cGF0aCBkPSJNOS41MTggNzMuOWwxLjQ1OC0uNzczdi4yODNsLTEuNDU4Ljc3M3oiIGNsYXNzPSJTIi8+PHBhdGggZD0iTTguMjYgNzMuMTQ3bDEuNDU4LS43NzUgMS4yNTcuNzU1LTEuNDU4Ljc3NHoiIGNsYXNzPSJSIi8+PHBhdGggZD0iTTkuNTE4IDczLjl2LjI4M2wtMS4yNTctLjc1NnYtLjI4eiIgY2xhc3M9IlQiLz48cGF0aCBkPSJNMTEuNDcgNzUuMDc1bDEuNDU3LS43NzMuMDAxLjI4My0xLjQ1OC43NzN6IiBjbGFzcz0iUyIvPjxwYXRoIGQ9Ik0xMC4yMTQgNzQuMzJsMS40NTgtLjc3MyAxLjI1Ni43NTUtMS40NTcuNzc0eiIgY2xhc3M9IlIiLz48cGF0aCBkPSJNMTEuNDcgNzUuMDc1di4yODNsLTEuMjU3LS43NTZ2LS4yODN6IiBjbGFzcz0iVCIvPjxwYXRoIGQ9Ik0xMy4zMzggNzYuMTk4bDEuNDU3LS43NzUuMDAxLjI4My0xLjQ1OC43NzN6IiBjbGFzcz0iUyIvPjxwYXRoIGQ9Ik0xMi4wOCA3NS40NDJsMS40NTgtLjc3MyAxLjI1Ni43NTMtMS40NTcuNzc2eiIgY2xhc3M9IlIiLz48cGF0aCBkPSJNMTMuMzM4IDc2LjE5OHYuMjhsLTEuMjU3LS43NTR2LS4yODN6IiBjbGFzcz0iVCIvPjxwYXRoIGQ9Ik0xNS4yNjYgNzcuMzU2bDEuNDU4LS43NzV2LjI4M2wtMS40NTguNzczeiIgY2xhc3M9IlMiLz48cGF0aCBkPSJNMTQuMDEgNzYuNmwxLjQ1OC0uNzczIDEuMjU3Ljc1My0xLjQ1OC43NzZ6IiBjbGFzcz0iUiIvPjxwYXRoIGQ9Ik0xNS4yNjYgNzcuMzU2di4yOGwtMS4yNTctLjc1NFY3Ni42eiIgY2xhc3M9IlQiLz48cGF0aCBkPSJNMTcuMTMyIDc4LjQ3N2wxLjQ2LS43NzN2LjI4bC0xLjQ2Ljc3NXoiIGNsYXNzPSJTIi8+PHBhdGggZD0iTTE1Ljg3IDc3LjcxN2wxLjQ2LS43NzMgMS4yNjQuNzYtMS40Ni43NzR6IiBjbGFzcz0iUiIvPjxwYXRoIGQ9Ik0xNy4xMzIgNzguNDc3di4yODNMMTUuODY4IDc4di0uMjgzeiIgY2xhc3M9IlQiLz48cGF0aCBkPSJNMTkuMDg1IDc5LjY1bDEuNDU3LS43NzMuMDAyLjI4LTEuNDYuNzczeiIgY2xhc3M9IlMiLz48cGF0aCBkPSJNMTcuODI4IDc4Ljg5NWwxLjQ2LS43NzMgMS4yNTYuNzU1LTEuNDU3Ljc3NHoiIGNsYXNzPSJSIi8+PHBhdGggZD0iTTE5LjA4NSA3OS42NXYuMjhsLTEuMjU2LS43NTQtLjAwMi0uMjgzeiIgY2xhc3M9IlQiLz48cGF0aCBkPSJNMjAuOTQ3IDgwLjc2OGwxLjQ1Ny0uNzczdi4yODNsLTEuNDU3Ljc3M3oiIGNsYXNzPSJTIi8+PHBhdGggZD0iTTE5LjY5IDgwLjAxNGwxLjQ1Ny0uNzc1IDEuMjU4Ljc1NS0xLjQ1Ny43NzR6IiBjbGFzcz0iUiIvPjxwYXRoIGQ9Ik0yMC45NDcgODAuNzY4di4yODNsLTEuMjU4LS43NTZ2LS4yOHoiIGNsYXNzPSJUIi8+PHBhdGggZD0iTTIyLjc3NyA4MS44N2wxLjQ1Ny0uNzc0di4yODNsLTEuNDU3Ljc3MnoiIGNsYXNzPSJTIi8+PHBhdGggZD0iTTIxLjUyIDgxLjExNGwxLjQ2LS43NzUgMS4yNTYuNzU1LTEuNDU3Ljc3NXoiIGNsYXNzPSJSIi8+PHBhdGggZD0iTTIyLjc3NyA4MS44N3YuMjhsLTEuMjU4LS43NTV2LS4yOHoiIGNsYXNzPSJUIi8+PHBhdGggZD0iTTI0LjYzNiA4Mi45ODZsMS40Ni0uNzczdi4yOGwtMS40Ni43NzV6IiBjbGFzcz0iUyIvPjxwYXRoIGQ9Ik0yMy4zOCA4Mi4yM2wxLjQ1Ny0uNzcyIDEuMjU4Ljc1NC0xLjQ2Ljc3NHoiIGNsYXNzPSJSIi8+PHBhdGggZD0iTTI0LjYzNiA4Mi45ODZ2LjI4M2wtMS4yNTYtLjc1NnYtLjI4M3oiIGNsYXNzPSJUIi8+PHBhdGggZD0iTTI2LjU5IDg0LjE2bDEuNDYtLjc3NXYuMjgzbC0xLjQ2Ljc3M3oiIGNsYXNzPSJTIi8+PHBhdGggZD0iTTI1LjMzNCA4My40MDRsMS40NTctLjc3MyAxLjI1OC43NTMtMS40Ni43NzZ6IiBjbGFzcz0iUiIvPjxwYXRoIGQ9Ik0yNi41OSA4NC4xNnYuMjhsLTEuMjU2LS43NTR2LS4yODN6IiBjbGFzcz0iVCIvPjxwYXRoIGQ9Ik0yOC40NTcgODUuMjhsMS40Ni0uNzczdi4yODNsLTEuNDYuNzczeiIgY2xhc3M9IlMiLz48cGF0aCBkPSJNMjcuMiA4NC41MjVsMS40NTctLjc3MyAxLjI1OC43NTUtMS40Ni43NzR6IiBjbGFzcz0iUiIvPjxwYXRoIGQ9Ik0yOC40NTcgODUuMjh2LjI4M2wtMS4yNTYtLjc1NnYtLjI4M3oiIGNsYXNzPSJUIi8+PHBhdGggZD0iTTMwLjM4NCA4Ni40NGwxLjQ2LS43NzN2LjI4M2wtMS40Ni43NzN6IiBjbGFzcz0iUyIvPjxwYXRoIGQ9Ik0yOS4xMjggODUuNjg1bDEuNDU3LS43NzUgMS4yNTguNzU1LTEuNDYuNzc0eiIgY2xhc3M9IlIiLz48cGF0aCBkPSJNMzAuMzg0IDg2LjQ0di4yODNsLTEuMjU2LS43NTZ2LS4yOHoiIGNsYXNzPSJUIi8+PHBhdGggZD0iTTMyLjIxIDg3LjUzNWwxLjQ1Ny0uNzczLjAwMi4yODMtMS40Ni43NzN6IiBjbGFzcz0iUyIvPjxwYXRoIGQ9Ik0zMC45NSA4Ni43OGwxLjQ2LS43NzUgMS4yNTYuNzU1LTEuNDU3Ljc3NHoiIGNsYXNzPSJSIi8+PHBhdGggZD0iTTMyLjIxIDg3LjUzNXYuMjgzbC0xLjI1Ni0uNzU2LS4wMDItLjI4eiIgY2xhc3M9IlQiLz48cGF0aCBkPSJNOS42NTcgNzEuNjZsMS40NTgtLjc3M3YuMjhsLTEuNDU4Ljc3NXoiIGNsYXNzPSJTIi8+PHBhdGggZD0iTTguNCA3MC45MDNsMS40NTgtLjc3MyAxLjI1Ny43NTUtMS40NTguNzc0eiIgY2xhc3M9IlIiLz48cGF0aCBkPSJNOS42NTcgNzEuNjZ2LjI4M0w4LjQgNzEuMTg2di0uMjgzeiIgY2xhc3M9IlQiLz48cGF0aCBkPSJNMTEuNTE4IDcyLjc3NmwxLjQ1OC0uNzczdi4yODNsLTEuNDU4Ljc3M3oiIGNsYXNzPSJTIi8+PHBhdGggZD0iTTEwLjI2IDcyLjAyMmwxLjQ1OC0uNzc1IDEuMjU3Ljc1NS0xLjQ1OC43NzR6IiBjbGFzcz0iUiIvPjxwYXRoIGQ9Ik0xMS41MTggNzIuNzc2di4yODNsLTEuMjU3LS43NTZ2LS4yOHoiIGNsYXNzPSJUIi8+PHBhdGggZD0iTTEzLjQ3IDczLjk1bDEuNDU3LS43NzMuMDAxLjI4My0xLjQ1OC43NzN6IiBjbGFzcz0iUyIvPjxwYXRoIGQ9Ik0xMi4yMTQgNzMuMTk0bDEuNDU4LS43NzMgMS4yNTYuNzU1LTEuNDU3Ljc3NHoiIGNsYXNzPSJSIi8+PHBhdGggZD0iTTEzLjQ3IDczLjk1di4yODNsLTEuMjU3LS43NTZ2LS4yODN6IiBjbGFzcz0iVCIvPjxwYXRoIGQ9Ik0xNS4zMzggNzUuMDczbDEuNDU2LS43NzUuMDAyLjI4My0xLjQ1OC43NzN6IiBjbGFzcz0iUyIvPjxwYXRoIGQ9Ik0xNC4wOCA3NC4zMTdsMS40NTgtLjc3MyAxLjI1NS43NTMtMS40NTcuNzc2eiIgY2xhc3M9IlIiLz48cGF0aCBkPSJNMTUuMzM4IDc1LjA3M3YuMjhsLTEuMjU2LS43NTR2LS4yODN6IiBjbGFzcz0iVCIvPjxwYXRoIGQ9Ik0xNy4yNjUgNzYuMjNsMS40Ni0uNzc1di4yODNsLTEuNDYuNzczeiIgY2xhc3M9IlMiLz48cGF0aCBkPSJNMTYuMDEgNzUuNDc1bDEuNDU3LS43NzMgMS4yNTguNzUzLTEuNDYuNzc2eiIgY2xhc3M9IlIiLz48cGF0aCBkPSJNMTcuMjY1IDc2LjIzdi4yOGwtMS4yNTYtLjc1NHYtLjI4M3oiIGNsYXNzPSJUIi8+PHBhdGggZD0iTTE5LjEzMiA3Ny4zNTJsMS40Ni0uNzczdi4yOGwtMS40Ni43NzV6IiBjbGFzcz0iUyIvPjxwYXRoIGQ9Ik0xNy44NyA3Ni41OTJsMS40Ni0uNzczIDEuMjY0Ljc2LTEuNDYuNzc0eiIgY2xhc3M9IlIiLz48cGF0aCBkPSJNMTkuMTMyIDc3LjM1MnYuMjgzbC0xLjI2NC0uNzZ2LS4yODN6IiBjbGFzcz0iVCIvPjxwYXRoIGQ9Ik0yMS4wODUgNzguNTI2bDEuNDU3LS43NzMuMDAyLjI4LTEuNDYuNzczeiIgY2xhc3M9IlMiLz48cGF0aCBkPSJNMTkuODI4IDc3Ljc3bDEuNDYtLjc3MyAxLjI1Ni43NTUtMS40NTcuNzc0eiIgY2xhc3M9IlIiLz48cGF0aCBkPSJNMjEuMDg1IDc4LjUyNnYuMjhsLTEuMjU2LS43NTQtLjAwMi0uMjgzeiIgY2xhc3M9IlQiLz48cGF0aCBkPSJNMjIuOTQ3IDc5LjY0M2wxLjQ1Ny0uNzczdi4yODNsLTEuNDU3Ljc3M3oiIGNsYXNzPSJTIi8+PHBhdGggZD0iTTIxLjY5IDc4Ljg5bDEuNDU3LS43NzUgMS4yNTguNzU1LTEuNDU3Ljc3NHoiIGNsYXNzPSJSIi8+PHBhdGggZD0iTTIyLjk0NyA3OS42NDN2LjI4M2wtMS4yNTgtLjc1NnYtLjI4eiIgY2xhc3M9IlQiLz48cGF0aCBkPSJNMjQuNzc3IDgwLjc0M2wxLjQ1Ny0uNzczdi4yODNsLTEuNDU3Ljc3M3oiIGNsYXNzPSJTIi8+PHBhdGggZD0iTTIzLjUyIDc5Ljk5bDEuNDYtLjc3NSAxLjI1Ni43NTUtMS40NTcuNzc0eiIgY2xhc3M9IlIiLz48cGF0aCBkPSJNMjQuNzc3IDgwLjc0M3YuMjgzbC0xLjI1OC0uNzU2di0uMjh6IiBjbGFzcz0iVCIvPjxwYXRoIGQ9Ik0yNi42MzYgODEuODZsMS40Ni0uNzc0di4yODNsLTEuNDYuNzc0eiIgY2xhc3M9IlMiLz48cGF0aCBkPSJNMjUuMzggODEuMTA2bDEuNDU3LS43NzMgMS4yNTguNzUzLTEuNDYuNzc1eiIgY2xhc3M9IlIiLz48cGF0aCBkPSJNMjYuNjM2IDgxLjg2di4yODNsLTEuMjU2LS43NTV2LS4yODN6IiBjbGFzcz0iVCIvPjxwYXRoIGQ9Ik0yOC41OSA4My4wMzVsMS40Ni0uNzc1di4yODNsLTEuNDYuNzczeiIgY2xhc3M9IlMiLz48cGF0aCBkPSJNMjcuMzM0IDgyLjI4bDEuNDU3LS43NzIgMS4yNTguNzUyLTEuNDYuNzc2eiIgY2xhc3M9IlIiLz48cGF0aCBkPSJNMjguNTkgODMuMDM1di4yOGwtMS4yNTYtLjc1NHYtLjI4M3oiIGNsYXNzPSJUIi8+PHBhdGggZD0iTTMwLjQ1NyA4NC4xNTZsMS40Ni0uNzczdi4yODNsLTEuNDYuNzczeiIgY2xhc3M9IlMiLz48cGF0aCBkPSJNMjkuMiA4My40bDEuNDU3LS43NzMgMS4yNTguNzU1LTEuNDYuNzc0eiIgY2xhc3M9IlIiLz48cGF0aCBkPSJNMzAuNDU3IDg0LjE1NnYuMjgzbC0xLjI1Ni0uNzU2VjgzLjR6IiBjbGFzcz0iVCIvPjxwYXRoIGQ9Ik0zMi4zODQgODUuMzE0bDEuNDYtLjc3M3YuMjgzbC0xLjQ2Ljc3M3oiIGNsYXNzPSJTIi8+PHBhdGggZD0iTTMxLjEyOCA4NC41NmwxLjQ1Ny0uNzc1IDEuMjU4Ljc1NS0xLjQ2Ljc3NHoiIGNsYXNzPSJSIi8+PHBhdGggZD0iTTMyLjM4NCA4NS4zMTR2LjI4M2wtMS4yNTYtLjc1NnYtLjI4eiIgY2xhc3M9IlQiLz48cGF0aCBkPSJNMzQuMjEgODYuNGwxLjQ1Ny0uNzczLjAwMi4yODMtMS40Ni43NzN6IiBjbGFzcz0iUyIvPjxwYXRoIGQ9Ik0zMi45NSA4NS42NTZsMS40Ni0uNzc1IDEuMjU2Ljc1NS0xLjQ1Ny43NzR6IiBjbGFzcz0iUiIvPjxwYXRoIGQ9Ik0zNC4yMSA4Ni40di4yODNsLTEuMjU2LS43NTYtLjAwMi0uMjh6IiBjbGFzcz0iVCIvPjxwYXRoIGQ9Ik0xMS43ODIgNzAuNTM0bDEuNDU4LS43NzN2LjI4bC0xLjQ1OC43NzV6IiBjbGFzcz0iUyIvPjxwYXRoIGQ9Ik0xMC41MjYgNjkuNzc4bDEuNDU4LS43NzMgMS4yNTcuNzU1LTEuNDU4Ljc3NHoiIGNsYXNzPSJSIi8+PHBhdGggZD0iTTExLjc4MiA3MC41MzR2LjI4M2wtMS4yNTctLjc1NnYtLjI4M3oiIGNsYXNzPSJUIi8+PHBhdGggZD0iTTEzLjY0MyA3MS42NWwxLjQ1OC0uNzczdi4yODNsLTEuNDU4Ljc3M3oiIGNsYXNzPSJTIi8+PHBhdGggZD0iTTEyLjM4NiA3MC44OTdsMS40NTgtLjc3NSAxLjI1Ny43NTUtMS40NTguNzc0eiIgY2xhc3M9IlIiLz48cGF0aCBkPSJNMTMuNjQzIDcxLjY1di4yODNsLTEuMjU3LS43NTZ2LS4yOHoiIGNsYXNzPSJUIi8+PHBhdGggZD0iTTE1LjU5NSA3Mi44MjVsMS40NTctLjc3My4wMDIuMjgzLTEuNDYuNzczeiIgY2xhc3M9IlMiLz48cGF0aCBkPSJNMTQuMzQgNzIuMDdsMS40NTgtLjc3MyAxLjI1NS43NTUtMS40NTcuNzc0eiIgY2xhc3M9IlIiLz48cGF0aCBkPSJNMTUuNTk1IDcyLjgyNXYuMjgzbC0xLjI1Ni0uNzU2di0uMjgzeiIgY2xhc3M9IlQiLz48cGF0aCBkPSJNMTcuNDYyIDczLjk0OGwxLjQ1Ny0uNzc1di4yODNsLTEuNDYuNzczeiIgY2xhc3M9IlMiLz48cGF0aCBkPSJNMTYuMjA3IDczLjE5MmwxLjQ1Ny0uNzczIDEuMjU2Ljc1My0xLjQ1Ny43NzZ6IiBjbGFzcz0iUiIvPjxwYXRoIGQ9Ik0xNy40NjIgNzMuOTQ4di4yOGwtMS4yNTYtLjc1NHYtLjI4M3oiIGNsYXNzPSJUIi8+PHBhdGggZD0iTTE5LjQgNzUuMTA2bDEuNDYtLjc3NXYuMjgzbC0xLjQ2Ljc3M3oiIGNsYXNzPSJTIi8+PHBhdGggZD0iTTE4LjEzNCA3NC4zNWwxLjQ1Ny0uNzczIDEuMjU4Ljc1My0xLjQ2Ljc3NnoiIGNsYXNzPSJSIi8+PHBhdGggZD0iTTE5LjQgNzUuMTA2di4yOGwtMS4yNTYtLjc1NHYtLjI4M3oiIGNsYXNzPSJUIi8+PHBhdGggZD0iTTIxLjI1NyA3Ni4yMjdsMS40Ni0uNzczdi4yOGwtMS40Ni43NzV6IiBjbGFzcz0iUyIvPjxwYXRoIGQ9Ik0xOS45OTQgNzUuNDY3bDEuNDYtLjc3MyAxLjI2NC43Ni0xLjQ2Ljc3NHoiIGNsYXNzPSJSIi8+PHBhdGggZD0iTTIxLjI1NyA3Ni4yMjd2LjI4M2wtMS4yNjQtLjc2di0uMjgzeiIgY2xhc3M9IlQiLz48cGF0aCBkPSJNMjMuMiA3Ny40bDEuNDU3LS43NzMuMDAyLjI4LTEuNDYuNzczeiIgY2xhc3M9IlMiLz48cGF0aCBkPSJNMjEuOTUzIDc2LjY0NWwxLjQ2LS43NzMgMS4yNTYuNzU1LTEuNDU3Ljc3NHoiIGNsYXNzPSJSIi8+PHBhdGggZD0iTTIzLjIgNzcuNHYuMjhsLTEuMjU2LS43NTQtLjAwMi0uMjgzeiIgY2xhc3M9IlQiLz48cGF0aCBkPSJNMjUuMDcyIDc4LjUxOGwxLjQ1Ny0uNzczdi4yODNsLTEuNDU3Ljc3M3oiIGNsYXNzPSJTIi8+PHBhdGggZD0iTTIzLjgxNCA3Ny43NjRsMS40NTctLjc3NSAxLjI1OC43NTUtMS40NTcuNzc0eiIgY2xhc3M9IlIiLz48cGF0aCBkPSJNMjUuMDcyIDc4LjUxOHYuMjgzbC0xLjI1OC0uNzU2di0uMjh6IiBjbGFzcz0iVCIvPjxwYXRoIGQ9Ik0yNi45MDIgNzkuNjE4bDEuNDU3LS43NzN2LjI4M2wtMS40NTcuNzczeiIgY2xhc3M9IlMiLz48cGF0aCBkPSJNMjUuNjQ0IDc4Ljg2NGwxLjQ2LS43NzUgMS4yNTYuNzU1LTEuNDU3Ljc3NHoiIGNsYXNzPSJSIi8+PHBhdGggZD0iTTI2LjkwMiA3OS42MTh2LjI4M2wtMS4yNTgtLjc1NnYtLjI4eiIgY2xhc3M9IlQiLz48cGF0aCBkPSJNMjguNzYgODAuNzM3bDEuNDYtLjc3NXYuMjgzbC0xLjQ2Ljc3M3oiIGNsYXNzPSJTIi8+PHBhdGggZD0iTTI3LjUwNSA3OS45OGwxLjQ1Ny0uNzczIDEuMjU4Ljc1My0xLjQ2Ljc3NnoiIGNsYXNzPSJSIi8+PHBhdGggZD0iTTI4Ljc2IDgwLjczN3YuMjhsLTEuMjU2LS43NTR2LS4yODN6IiBjbGFzcz0iVCIvPjxwYXRoIGQ9Ik0zMC43MTQgODEuOWwxLjQ2LS43NzR2LjI4M2wtMS40Ni43NzJ6IiBjbGFzcz0iUyIvPjxwYXRoIGQ9Ik0yOS40NiA4MS4xNTVsMS40NTctLjc3MyAxLjI1OC43NTMtMS40Ni43NzV6IiBjbGFzcz0iUiIvPjxwYXRoIGQ9Ik0zMC43MTQgODEuOXYuMjhsLTEuMjU2LS43NTV2LS4yOHoiIGNsYXNzPSJUIi8+PHBhdGggZD0iTTMyLjU4MiA4My4wM2wxLjQ2LS43NzN2LjI4M2wtMS40Ni43NzN6IiBjbGFzcz0iUyIvPjxwYXRoIGQ9Ik0zMS4zMjYgODIuMjc1bDEuNDU3LS43NzIgMS4yNTguNzU0LTEuNDYuNzc0eiIgY2xhc3M9IlIiLz48cGF0aCBkPSJNMzIuNTgyIDgzLjAzdi4yODNsLTEuMjU2LS43NTZ2LS4yODN6IiBjbGFzcz0iVCIvPjxwYXRoIGQ9Ik0zNC41MSA4NC4xOWwxLjQ2LS43NzN2LjI4M2wtMS40Ni43NzN6IiBjbGFzcz0iUyIvPjxwYXRoIGQ9Ik0zMy4yNTMgODMuNDM1bDEuNDU3LS43NzUgMS4yNTguNzU1LTEuNDYuNzc0eiIgY2xhc3M9IlIiLz48cGF0aCBkPSJNMzQuNTEgODQuMTl2LjI4M2wtMS4yNTYtLjc1NnYtLjI4eiIgY2xhc3M9IlQiLz48cGF0aCBkPSJNMzYuMzM0IDg1LjI4NWwxLjQ1Ny0uNzczLjAwMi4yODMtMS40Ni43NzN6IiBjbGFzcz0iUyIvPjxwYXRoIGQ9Ik0zNS4wNzYgODQuNTNsMS40Ni0uNzc1IDEuMjU2Ljc1NS0xLjQ1Ny43NzR6IiBjbGFzcz0iUiIvPjxwYXRoIGQ9Ik0zNi4zMzQgODUuMjg1di4yODNsLTEuMjU2LS43NTYtLjAwMi0uMjh6IiBjbGFzcz0iVCIvPjxwYXRoIGQ9Ik02LjI2NiA3NC40NmwxLjQ1OC0uNzc1di4yNzVsLTEuNDU4Ljc3M3oiIGNsYXNzPSJTIi8+PHBhdGggZD0iTTUuMDA4IDczLjcwNWwxLjQ1OC0uNzczIDEuMjU4Ljc1My0xLjQ1OC43NzZ6IiBjbGFzcz0iUiIvPjxwYXRoIGQ9Ik02LjI2NiA3NC40NnYuMjczTDUuMDEgNzMuOThsLS4wMDEtLjI3NHoiIGNsYXNzPSJUIi8+PHBhdGggZD0iTTguMDM0IDc1LjUyNGwxLjQ1OC0uNzc1di4yNzVsLTEuNDU4Ljc3M3oiIGNsYXNzPSJTIi8+PHBhdGggZD0iTTYuNzc3IDc0Ljc2OGwxLjQ1OC0uNzczIDEuMjU3Ljc1My0xLjQ1OC43NzZ6IiBjbGFzcz0iUiIvPjxwYXRoIGQ9Ik04LjAzNCA3NS41MjR2LjI3M2wtMS4yNTctLjc1M3YtLjI3NnoiIGNsYXNzPSJUIi8+PHBhdGggZD0iTTkuODk1IDc2LjY0bDEuNDU4LS43NzN2LjI3M2wtMS40NTguNzc1eiIgY2xhc3M9IlMiLz48cGF0aCBkPSJNOC42MzggNzUuODg1bDEuNDU4LS43NzMgMS4yNTcuNzU1LTEuNDU4Ljc3NHoiIGNsYXNzPSJSIi8+PHBhdGggZD0iTTkuODk1IDc2LjY0di4yNzVsLTEuMjU3LS43NTV2LS4yNzZ6IiBjbGFzcz0iVCIvPjxwYXRoIGQ9Ik0yNS40NTMgODUuOTZsMS40Ni0uNzczdi4yNzNsLTEuNDYuNzc1eiIgY2xhc3M9IlMiLz48cGF0aCBkPSJNMjQuMTk1IDg1LjIwNGwxLjQ2LS43NzMgMS4yNTguNzU1LTEuNDYuNzc0eiIgY2xhc3M9IlIiLz48cGF0aCBkPSJNMjUuNDUzIDg1Ljk2di4yNzVsLTEuMjU2LS43NTUtLjAwMi0uMjc2eiIgY2xhc3M9IlQiLz48cGF0aCBkPSJNMjcuMjIyIDg3LjAyM2wxLjQ1Ny0uNzczdi4yNzNsLTEuNDU3Ljc3NXoiIGNsYXNzPSJTIi8+PHBhdGggZD0iTTI1Ljk2NCA4Ni4yNjdsMS40Ni0uNzczIDEuMjU1Ljc1NS0xLjQ1Ny43NzR6IiBjbGFzcz0iUiIvPjxwYXRoIGQ9Ik0yNy4yMjIgODcuMDIzdi4yNzVsLTEuMjU4LS43NTV2LS4yNzZ6IiBjbGFzcz0iVCIvPjxwYXRoIGQ9Ik0yOS4wODIgODguMTRsMS40Ni0uNzczdi4yNzVsLTEuNDYuNzczeiIgY2xhc3M9IlMiLz48cGF0aCBkPSJNMjcuODI2IDg3LjM4NmwxLjQ1Ny0uNzc1IDEuMjU4Ljc1NS0xLjQ2Ljc3NHoiIGNsYXNzPSJSIi8+PHBhdGggZD0iTTI5LjA4MiA4OC4xNHYuMjc1bC0xLjI1Ni0uNzU1di0uMjc0eiIgY2xhc3M9IlQiLz48cGF0aCBkPSJNMjMuNDY2IDg0LjgwNmwxLjQ2LS43NzN2LjI3NWwtMS40Ni43NzN6IiBjbGFzcz0iUyIvPjxwYXRoIGQ9Ik0xMC41NzIgNzcuMDZsMS40NTgtLjc3MyAxMi44OTUgNy43NDctMS40Ni43NzN6IiBjbGFzcz0iUiIvPjxwYXRoIGQ9Ik0yMy40NjYgODQuODA2di4yNzVsLTEyLjg5NC03Ljc0N3YtLjI3NXoiIGNsYXNzPSJUIi8+PHBhdGggZD0iTS43NDIgNzMuMTY0bDI5LjQgMTcuNjd2My4yMDUiIGNsYXNzPSJVIFYgYiBjIi8+PC9nPjwvc3ZnPg==;" parent="1" vertex="1">
          <mxGeometry x="-1240" y="-860" width="74" height="101" as="geometry" />
        </mxCell>
        <mxCell id="Lh-iwgCYphF1HfvxAwnO-23" value="Wireless" style="swimlane;startSize=0;dashed=1;labelPosition=center;verticalLabelPosition=bottom;align=center;verticalAlign=top;" parent="1" vertex="1">
          <mxGeometry x="-1150" y="-910" width="290" height="200" as="geometry" />
        </mxCell>
        <mxCell id="Lh-iwgCYphF1HfvxAwnO-24" value="Laptops/Cellphones" style="sketch=0;verticalLabelPosition=bottom;sketch=0;aspect=fixed;html=1;verticalAlign=top;strokeColor=none;fillColor=#000000;align=center;outlineConnect=0;pointerEvents=1;shape=mxgraph.citrix2.devices;" parent="Lh-iwgCYphF1HfvxAwnO-23" vertex="1">
          <mxGeometry x="30" y="20.9" width="67.98" height="30" as="geometry" />
        </mxCell>
        <mxCell id="Lh-iwgCYphF1HfvxAwnO-25" value="Amazon&lt;div&gt;Thermostat&lt;/div&gt;" style="sketch=0;outlineConnect=0;fontColor=#232F3E;gradientColor=none;strokeColor=#232F3E;fillColor=#ffffff;dashed=0;verticalLabelPosition=bottom;verticalAlign=top;align=center;html=1;fontSize=12;fontStyle=0;aspect=fixed;shape=mxgraph.aws4.resourceIcon;resIcon=mxgraph.aws4.thermostat;" parent="Lh-iwgCYphF1HfvxAwnO-23" vertex="1">
          <mxGeometry x="220" y="8.600000000000023" width="60" height="60" as="geometry" />
        </mxCell>
        <mxCell id="Lh-iwgCYphF1HfvxAwnO-26" value="IP Address" style="swimlane;fontStyle=0;childLayout=stackLayout;horizontal=1;startSize=30;horizontalStack=0;resizeParent=1;resizeParentMax=0;resizeLast=0;collapsible=1;marginBottom=0;whiteSpace=wrap;html=1;" parent="1" vertex="1">
          <mxGeometry x="-1040" y="-1090" width="170" height="120" as="geometry" />
        </mxCell>
        <mxCell id="Lh-iwgCYphF1HfvxAwnO-27" value="Testbench 192.168.0.xxx/24" style="text;strokeColor=none;fillColor=none;align=right;verticalAlign=middle;spacingLeft=4;spacingRight=4;overflow=hidden;points=[[0,0.5],[1,0.5]];portConstraint=eastwest;rotatable=0;whiteSpace=wrap;html=1;" parent="Lh-iwgCYphF1HfvxAwnO-26" vertex="1">
          <mxGeometry y="30" width="170" height="30" as="geometry" />
        </mxCell>
        <mxCell id="Lh-iwgCYphF1HfvxAwnO-28" value="HomeLab 192.148.0.xxx/24" style="text;strokeColor=none;fillColor=none;align=right;verticalAlign=middle;spacingLeft=4;spacingRight=4;overflow=hidden;points=[[0,0.5],[1,0.5]];portConstraint=eastwest;rotatable=0;whiteSpace=wrap;html=1;" parent="Lh-iwgCYphF1HfvxAwnO-26" vertex="1">
          <mxGeometry y="60" width="170" height="30" as="geometry" />
        </mxCell>
        <mxCell id="Lh-iwgCYphF1HfvxAwnO-29" value="Main IP xxx.xxx.xxx.xxx/24" style="text;strokeColor=none;fillColor=none;align=right;verticalAlign=middle;spacingLeft=4;spacingRight=4;overflow=hidden;points=[[0,0.5],[1,0.5]];portConstraint=eastwest;rotatable=0;whiteSpace=wrap;html=1;" parent="Lh-iwgCYphF1HfvxAwnO-26" vertex="1">
          <mxGeometry y="90" width="170" height="30" as="geometry" />
        </mxCell>
        <mxCell id="Lh-iwgCYphF1HfvxAwnO-30" value="" style="rounded=1;whiteSpace=wrap;html=1;" parent="1" vertex="1">
          <mxGeometry x="-1680" y="-630" width="660" height="290" as="geometry" />
        </mxCell>
        <mxCell id="Lh-iwgCYphF1HfvxAwnO-31" value="Proxmox" style="text;html=1;align=center;verticalAlign=middle;whiteSpace=wrap;rounded=0;labelBackgroundColor=default;" parent="1" vertex="1">
          <mxGeometry x="-1495" y="-670" width="60" height="30" as="geometry" />
        </mxCell>
        <mxCell id="Lh-iwgCYphF1HfvxAwnO-32" value="Ubuntu Server VM" style="rounded=1;whiteSpace=wrap;html=1;labelPosition=center;verticalLabelPosition=top;align=center;verticalAlign=bottom;" parent="1" vertex="1">
          <mxGeometry x="-1670" y="-600" width="640" height="250" as="geometry" />
        </mxCell>
        <mxCell id="Lh-iwgCYphF1HfvxAwnO-33" value="VPN" style="rounded=1;whiteSpace=wrap;html=1;dashed=1;labelPosition=center;verticalLabelPosition=top;align=center;verticalAlign=bottom;fontStyle=1" parent="1" vertex="1">
          <mxGeometry x="-1660" y="-570" width="90" height="210" as="geometry" />
        </mxCell>
        <mxCell id="Lh-iwgCYphF1HfvxAwnO-34" value="WireGuard" style="html=1;strokeWidth=1;shadow=0;dashed=0;shape=mxgraph.ios7.misc.vpn;fillColor=#007AFF;strokeColor=none;buttonText=;strokeColor2=#222222;fontColor=#222222;fontSize=8;verticalLabelPosition=bottom;verticalAlign=top;align=center;sketch=0;" parent="1" vertex="1">
          <mxGeometry x="-1645" y="-560" width="60" height="50" as="geometry" />
        </mxCell>
        <mxCell id="Lh-iwgCYphF1HfvxAwnO-35" value="&lt;font style=&quot;font-size: 10px;&quot;&gt;192.168.0.101&lt;/font&gt;" style="text;html=1;align=center;verticalAlign=middle;whiteSpace=wrap;rounded=0;" parent="1" vertex="1">
          <mxGeometry x="-1657.5" y="-390" width="85" height="30" as="geometry" />
        </mxCell>
        <mxCell id="Lh-iwgCYphF1HfvxAwnO-36" value="File Share" style="rounded=1;whiteSpace=wrap;html=1;dashed=1;labelPosition=center;verticalLabelPosition=top;align=center;verticalAlign=bottom;fontStyle=1" parent="1" vertex="1">
          <mxGeometry x="-1560" y="-570" width="200" height="210" as="geometry" />
        </mxCell>
        <mxCell id="Lh-iwgCYphF1HfvxAwnO-37" value="&lt;font style=&quot;font-size: 10px;&quot;&gt;192.168.0.102&lt;/font&gt;" style="text;html=1;align=center;verticalAlign=middle;whiteSpace=wrap;rounded=0;" parent="1" vertex="1">
          <mxGeometry x="-1507.5" y="-390" width="85" height="30" as="geometry" />
        </mxCell>
        <mxCell id="Lh-iwgCYphF1HfvxAwnO-38" value="Reverse Proxy" style="rounded=1;whiteSpace=wrap;html=1;dashed=1;labelPosition=center;verticalLabelPosition=top;align=center;verticalAlign=bottom;fontStyle=1" parent="1" vertex="1">
          <mxGeometry x="-1350" y="-574.5" width="200" height="214.5" as="geometry" />
        </mxCell>
        <mxCell id="Lh-iwgCYphF1HfvxAwnO-39" value="&lt;font style=&quot;font-size: 10px;&quot;&gt;192.168.0.103&lt;/font&gt;" style="text;html=1;align=center;verticalAlign=middle;whiteSpace=wrap;rounded=0;" parent="1" vertex="1">
          <mxGeometry x="-1292.5" y="-390" width="85" height="30" as="geometry" />
        </mxCell>
        <mxCell id="Lh-iwgCYphF1HfvxAwnO-40" value="&lt;font style=&quot;font-size: 10px;&quot;&gt;Video Recording&lt;/font&gt;" style="rounded=1;whiteSpace=wrap;html=1;dashed=1;labelPosition=center;verticalLabelPosition=top;align=center;verticalAlign=bottom;fontStyle=1" parent="1" vertex="1">
          <mxGeometry x="-1140" y="-570" width="90" height="210" as="geometry" />
        </mxCell>
        <mxCell id="Lh-iwgCYphF1HfvxAwnO-41" value="&lt;font style=&quot;font-size: 10px;&quot;&gt;192.168.0.104&lt;/font&gt;" style="text;html=1;align=center;verticalAlign=middle;whiteSpace=wrap;rounded=0;" parent="1" vertex="1">
          <mxGeometry x="-1137.5" y="-390" width="85" height="30" as="geometry" />
        </mxCell>
        <mxCell id="Lh-iwgCYphF1HfvxAwnO-43" value="Caddy" style="sketch=0;pointerEvents=1;shadow=0;dashed=0;html=1;strokeColor=none;fillColor=#505050;labelPosition=center;verticalLabelPosition=bottom;verticalAlign=top;outlineConnect=0;align=center;shape=mxgraph.office.servers.reverse_proxy;" parent="1" vertex="1">
          <mxGeometry x="-1270.5" y="-561.5" width="41" height="53" as="geometry" />
        </mxCell>
        <mxCell id="Lh-iwgCYphF1HfvxAwnO-44" value="" style="image;sketch=0;aspect=fixed;html=1;points=[];align=center;fontSize=12;image=data:image/svg+xml,PHN2ZyB4bWxucz0iaHR0cDovL3d3dy53My5vcmcvMjAwMC9zdmciIHdpZHRoPSI1MCIgaGVpZ2h0PSI0MS45NDgiPjxwYXRoIGQ9Ik0zNy4wMiAzOS4zMDhsNC41NTUtMy45MThjLS4zMDUtLjM4NC0uODE1LS42NjItMS4yNDgtLjgyNy0uODc0LS4zMzMtMS43MzYtLjIyLTIuNTM3LjI0Mi0xLjA1LjYwNi0xLjQ5NiAxLjU3LTEuNDU3IDIuNzdhMi42NSAyLjY1IDAgMCAwIC4zOTQgMS4zMyAzLjQ5IDMuNDkgMCAwIDAgLjI5My40MDFtMS4zLjkxNGMuNTUuMTkyIDEuMTguMTY1IDEuNzQ2LjA2Ni4zLS4xMjMgMS4wMy0uNDQ2IDEuMzAyLS4zOThsLjA0My4wMDcuMDQuMDJjLjE2Ni4wOC4zMjUuMTk1LjQuMzYzLjE5OC4zOTcuMTAzLjc5NS0uMjg2IDEuMDJsLS4xMy4wNzVjLTEuNDM3LjgzLTIuOTY2LjcxNS00LjQtLjA2LS42ODUtLjM3LTEuMi0uOTItMS41OTYtMS42bC0uMS0uMTU3Yy0uOTIzLTEuNTk4LS43OTgtMy4yOC4yNDItNC44LjM2LS41MjUuODMtLjkzIDEuMzc4LTEuMjQ4bC4yMDgtLjEyYzEuMzU0LS43OCAyLjgwNC0uNzI4IDQuMTk1LS4wNDIuNzQ3LjM3IDEuMzUzLjkyIDEuNzcgMS42NDJsLjA3NS4xM2MuMzAzLjUyNS0uMS45ODMtLjQ5NSAxLjI5NmwtMS4zOTcgMS4yTDM4LjMgNDAuMjF6bTEwLjc3LTcuMjdoLjE1Yy40NTUgMCAuNzU4LjMwNi43NTguNzU4IDAgLjYyNy0uNi43ODgtMS4xMi43ODgtLjY4IDAtMS4zMy40MTItMS44Ljg3NC0uNTg1LjU3Ny0uODQgMS4zMTUtLjg0IDIuMTI3djMuNjdjMCAuNDItLjI2Mi43NTgtLjY5OC43NThoLS4xMmMtLjQzNiAwLS42OTgtLjMzOC0uNjk4LS43NTh2LTMuODhjMC0xLjUuNzI1LTIuNzA1IDEuOTM0LTMuNTU4YTQuMTYgNC4xNiAwIDAgMSAyLjQzMi0uNzc5em0tMTguODg3IDIuNjA0bDEuNzc3LTEuNzU3Yy4xNjctLjE2Mi43OTctLjg0NiAxLjA0NS0uODQ2aC4yN2wuMDMuMDA2Yy4zNDYuMDcyLjYwNS4zLjYwNS42NjJ2LjE1YzAgLjI1My0uMjk3LjU0OC0uNDYuNzJsLTIuOTAyIDIuOTQ1IDIuMzU4IDIuMzc3LjY0Ni42NjRjLjA3NS4wOC4xODYuMTc4LjI1LjI4OGEuNjIuNjIgMCAwIDEgLjEwOS4zNDJ2LjE1N2wtLjAxLjAzNmMtLjA4NS4zNDYtLjMwNS42MjUtLjY4OC42MjVoLS4xMmMtLjI1IDAtLjUzNC0uMjg0LS43MDYtLjQ0NmwtMS4wNDItMS4wMjUtMS4xNjMtMS4xNDJ2MS44MjVjMCAuNDItLjI2My43NTgtLjY5OC43NThoLS4xMmMtLjQzNSAwLS42OTgtLjMzOC0uNjk4LS43NThWMzAuODUzYzAtLjQyLjI2My0uNzU3LjY5OC0uNzU3aC4xMmMuNDM1IDAgLjY5OC4zMzYuNjk4Ljc1N3Y0LjcwM3pNMjUuMyAzNC41M2MtLjIzLS4xMDctLjY1Ny0uMTQzLS45MDQtLjE1Mi0xLjI2Ni0uMDQ4LTIuMTgyLjY2NS0yLjcyIDEuNzgyLS4xODYuMzg1LS4yNy43OTMtLjI3IDEuMjIgMCAxLjI5OC42OCAyLjIwNyAxLjg0IDIuNzYuNDIzLjIwMi45Ny4yNCAxLjQzMi4yNC40MDcgMCAuOTgyLS4yNSAxLjM0My0uNDJsLjA2My0uMDNoLjI4bC4wMy4wMDZjLjM0NS4wNzIuNjA1LjMuNjA1LjY2di4xNWMwIC45MjMtMS42ODYgMS4xMzQtMi4zMyAxLjE4LTIuMjcuMTU3LTMuOTY4LTEuMS00LjYxNi0zLjI1NS0uMTEzLS4zNzYtLjE2My0uNzUtLjE2My0xLjE0di0uM2MwLTEuNjQzLjgxNS0yLjk0NSAyLjIyNS0zLjc4MmE0LjE1IDQuMTUgMCAwIDEgMi4xNDItLjU4NWguM2EzLjg1IDMuODUgMCAwIDEgMi4yMTguNjg1bC4wNTUuMDM4LjAzNS4wNTdjLjA3Mi4xMi4xMzQuMjU3LjEzNC40di4xNWMwIC4zODctLjMuNTk1LS42NC42NjJsLS4wMy4wMDVoLS4xYy0uMjI3LS4wMDEtLjc0LS4yMzYtLjk0My0uMzN6TTExLjQ3MyAzNy40YzAgMS4xNTIuNTY1IDIgMS41MzggMi41OTUuNDU3LjI4Ljk2LjQwNiAxLjQ5NC40MDYgMS4xMzggMCAxLjk4LS41NzcgMi41NjUtMS41MzguMjgtLjQ1OC40MDUtLjk2LjQwNS0xLjQ5NCAwLTEuMDctLjUxNi0xLjktMS4zOTgtMi40ODJhMi44MiAyLjgyIDAgMCAwLTEuNjAzLS40ODhjLTEuMjcgMC0yLjE4My42NC0yLjczIDEuNzgtLjE4Ni4zODQtLjI3Ljc5My0uMjcgMS4yMnptMi44NS00LjUxOGguMmMxLjc1NiAwIDMuMS44NTIgMy45MzcgMi4zODQuMzM4LjYxMy41MiAxLjI4Mi41MiAxLjk4M3YuM2MwIDEuNjQzLS44IDIuOTUyLTIuMjI2IDMuNzgzLS42NTYuMzg1LTEuMzguNTg0LTIuMTQuNTg0aC0uM2MtMS42NDMgMC0yLjk1LS44MTItMy43ODItMi4yMjZhNC4xNyA0LjE3IDAgMCAxLS41ODQtMi4xNDF2LS4zYzAtMS42NDMuODE1LTIuOTQ1IDIuMjI1LTMuNzgzLjY1NS0uNCAxLjM4LS41ODQgMi4xNC0uNTg0ek0xLjU1IDM3LjRjMCAxLjE4Ny41NzUgMi4wOCAxLjYxNSAyLjY0OC40Mi4yMy44NzcuMzU0IDEuMzU3LjM1NCAxLjE2NSAwIDIuMDMtLjU1IDIuNjI0LTEuNTM2LjI3Ny0uNDYuNDA2LS45Ni40MDYtMS40OTYgMC0xLjAzLS40ODctMS44My0xLjMxNi0yLjQyOGEyLjgzIDIuODMgMCAwIDAtMS42ODUtLjU0M2MtMS4yNyAwLTIuMTgzLjY0LTIuNzMgMS43OC0uMTg2LjM4NC0uMjcuNzkzLS4yNyAxLjIyem02LjAwMi0zLjM4N3YtMy4yYzAtLjQyLjI2My0uNzU4LjY5OC0uNzU4aC4xMmMuNDM1IDAgLjY5Ny4zMzguNjk3Ljc1OHY2LjczNmMwIDEuNjQzLS44MTIgMi45NS0yLjIyNiAzLjc4MmE0LjE4IDQuMTggMCAwIDEtMi4xNC41ODRoLS4zYy0xLjY0MyAwLTIuOTQ4LS44MTItMy43ODItMi4yMjZhNC4xNyA0LjE3IDAgMCAxLS41ODQtMi4xNDF2LS4zYzAtMS42NDMuODEyLTIuOTUgMi4yMjUtMy43ODRhNC4xNyA0LjE3IDAgMCAxIDIuMTQtLjU3NGguM2MxLjExMi4wMDIgMi4wNTUuNDMzIDIuODUgMS4xMzN6bTIxLjMtMjUuMDdoNC40NzJ2NC41N2gyLjI2YTkuODEgOS44MSAwIDAgMCAzLjEwNy0uNTIxYy40ODYtLjE2NSAxLjAzLS4zOTQgMS41LS42ODItLjYzLS44MjQtLjk1My0xLjg2NS0xLjA0OC0yLjktLjEzLTEuMzk1LjE1My0zLjIgMS4wOTctNC4zMDNsLjQ3LS41NDQuNTYuNDVjMS40IDEuMTMzIDIuNTk2IDIuNzE2IDIuODA1IDQuNTIgMS42OTgtLjUgMy42OTItLjM4IDUuMTg4LjQ4M2wuNjE0LjM1NC0uMzIzLjYzYy0xLjI2NiAyLjQ3LTMuOTEyIDMuMjM2LTYuNSAzLjEtMy44NyA5LjY0My0xMi4zIDE0LjIwOC0yMi41MiAxNC4yMDgtNS4yOCAwLTEwLjEyNC0xLjk3NC0xMi44ODItNi42NThsLS4wNDUtLjA3Ny0uNDAyLS44MThjLS45MzItMi4wNjItMS4yNDItNC4zMi0xLjAzMi02LjU3OGwuMDYzLS42NzZoMy44MjRWOC45M2g0LjQ3VjQuNDdoOC45NDNWMGg1LjM2NnoiIGZpbGw9IiMzOTRkNTQiIGZpbGwtcnVsZT0iZXZlbm9kZCIvPjxwYXRoIGQ9Ik00My4zMyAxMC42MzRjLjMtMi4zMy0xLjQ0NC00LjE2LTIuNTI1LTUuMDMtMS4yNDYgMS40NC0xLjQ0IDUuMjE3LjUxNSA2LjgwNy0xLjA5Ljk3LTMuNCAxLjg0OC01Ljc0NSAxLjg0OEg2LjkxN2MtLjIzIDIuNDU4LjIwMyA0LjcyIDEuMTg4IDYuNjU4bC4zMjYuNTk2Yy4yMDYuMzUuNDMyLjY4OC42NzYgMS4wMTRsMy4yNTguMDhjMS45NTQtLjA0MyAzLjU0OC0uMjc0IDQuNzU1LS42OTIuMTgtLjA2Mi4zNzYuMDMzLjQzOC4yMTJzLS4wMzMuMzc2LS4yMTMuNDM4bC0uNS4xNTdjLS45NTIuMjctMS45NzIuNDU0LTMuMjg3LjUzNi4wNzguMDAxLS4wOC4wMTItLjA4Mi4wMTJsLS4xNDYuMDEyLTEuNjQ4LjAzNWEzNy4wOCAzNy4wOCAwIDAgMS0xLjkyOS0uMDQ3bC0uMDE4LjAxMmMyLjM4OCAyLjY4NCA2LjEyIDQuMjkzIDEwLjggNC4yOTMgOS45MDUgMCAxOC4zMDYtNC4zOSAyMi4wMjYtMTQuMjQ4IDIuNjQuMjcgNS4xNzYtLjQwMiA2LjMzLTIuNjU1LTEuODM3LTEuMDYtNC4yLS43MjMtNS41Ni0uMDR6IiBmaWxsPSIjMDBhYWRhIi8+PHBhdGggZD0iTTQzLjMzIDEwLjYzNGMuMy0yLjMzLTEuNDQ0LTQuMTYtMi41MjUtNS4wMy0xLjI0NiAxLjQ0LTEuNDQgNS4yMTcuNTE1IDYuODA3LTEuMDkuOTctMy40IDEuODQ4LTUuNzQ1IDEuODQ4SDguNjE0Yy0uMTE3IDMuNzY0IDEuMjggNi42MiAzLjc1IDguMzQ4IDEuOTU0LS4wNDMgMy41NDgtLjI3NCA0Ljc1NS0uNjkyLjE4LS4wNjIuMzc2LjAzMy40MzguMjEycy0uMDMzLjM3Ni0uMjEzLjQzOGwtLjUuMTU3Yy0uOTUyLjI3LTIuMDYuNDc4LTMuMzc1LjU2bC0uMDMyLS4wM2MzLjM3IDEuNzMgOC4yNTggMS43MjMgMTMuODYyLS40MyA2LjI4My0yLjQxNCAxMi4xMy03LjAxMyAxNi4yLTEyLjI3My0uMDYyLjAyNy0uMTIyLjA1Ni0uMTguMDg1eiIgZmlsbD0iIzI0YjhlYiIvPjxwYXRoIGQ9Ik02Ljk3IDE3LjI0NWMuMTc4IDEuMzE2LjU2MyAyLjU1IDEuMTM0IDMuNjcybC4zMjYuNTk2Yy4yMDYuMzUuNDMyLjY4OC42NzYgMS4wMTRsMy4yNi4wOGMxLjk1My0uMDQzIDMuNTQ3LS4yNzQgNC43NTQtLjY5Mi4xOC0uMDYyLjM3Ni4wMzMuNDM4LjIxMnMtLjAzMy4zNzYtLjIxMy40MzhsLS41LjE1N2MtLjk1Mi4yNy0yLjA1NC40NjYtMy4zNy41NDdsLS4xNy4wMDYtMS42NDIuMDQ3YTM3Ljk1IDM3Ljk1IDAgMCAxLTEuOTUyLS4wNDdjMi4zODggMi42ODQgNi4xNDUgNC4zIDEwLjgyNSA0LjMgOC40OCAwIDE1Ljg1Ni0zLjIyIDIwLjEzOC0xMC4zM0g2Ljk3eiIgZmlsbD0iIzAwOGJiOCIvPjxwYXRoIGQ9Ik04Ljg3MiAxNy4yNDVjLjUwNyAyLjMxIDEuNzI1IDQuMTI2IDMuNDkzIDUuMzYyIDEuOTUzLS4wNDMgMy41NDctLjI3NCA0Ljc1NC0uNjkyLjE4LS4wNjIuMzc2LjAzMy40MzguMjEycy0uMDMzLjM3Ni0uMjEzLjQzOGwtLjUuMTU3Yy0uOTUyLjI3LTIuMDc3LjQ2Ni0zLjM5My41NDcgMy4zNyAxLjczIDguMjQ0IDEuNzA0IDEzLjg0Ny0uNDQ4IDMuNC0xLjMwMiA2LjY1Mi0zLjI0IDkuNTgtNS41NzZ6IiBmaWxsPSIjMDM5YmM2Ii8+PGcgZmlsbC1ydWxlPSJldmVub2RkIj48cGF0aCBkPSJNMTQuMDUzIDEwaC4zMDZ2My4yM2gtLjMwNnptLS41ODcgMGguMzE4djMuMjNoLS4zMTh6bS0uNTg3IDBoLjMxOHYzLjIzaC0uMzE4em0tLjU4OCAwaC4zMTh2My4yM2gtLjMxOHptLS41ODcgMGguMzE4djMuMjNoLS4zMTh6bS0uNTc1IDBoLjMwNnYzLjIzaC0uMzA2em0tLjMyMi0uMzIzaDMuODc1djMuODc2aC0zLjg3NXptNy43MTgtNC4xNDdoLjMwNnYzLjIzaC0uMzA2em0tLjU4NyAwaC4zMTh2My4yM2gtLjMxOHptLS41ODggMGguMzE4djMuMjNoLS4zMTh6bS0uNTg3IDBoLjMxOHYzLjIzaC0uMzE4em0tLjU4NyAwaC4zMTh2My4yM2gtLjMxOHptLS41NzUgMGguMzA2djMuMjNIMTUuNnptLS4zMjMtLjMyM2gzLjg3NlY5LjFoLTMuODc2eiIgZmlsbD0iIzAwYWNkMyIvPjxwYXRoIGQ9Ik0xOC41MjUgMTAuMDFoLjMwNnYzLjIzaC0uMzA2em0tLjU4NyAwaC4zMTh2My4yM2gtLjMxOHptLS41ODggMGguMzE4djMuMjNoLS4zMTh6bS0uNTg3IDBoLjMxOHYzLjIzaC0uMzE4em0tLjU4NyAwaC4zMTh2My4yM2gtLjMxOHptLS41NzUgMGguMzA2djMuMjNIMTUuNnptLS4zMjMtLjMyM2gzLjg3NnYzLjg3NmgtMy44NzZ6IiBmaWxsPSIjMjBjMmVmIi8+PHBhdGggZD0iTTIyLjk5NyAxMC4wMWguMzA2djMuMjNoLS4zMDZ6bS0uNTg4IDBoLjMxOHYzLjIzaC0uMzE4em0tLjU4NyAwaC4zMTh2My4yM2gtLjMxOHptLS41ODcgMGguMzE4djMuMjNoLS4zMTh6bS0uNTg3IDBoLjMxOHYzLjIzaC0uMzE4em0tLjU3NSAwaC4zMDZ2My4yM2gtLjMwNnptLS4zMjMtLjMyM2gzLjg3NnYzLjg3NkgxOS43NXoiIGZpbGw9IiMwMGFjZDMiLz48cGF0aCBkPSJNMjIuOTk3IDUuNTRoLjMwNnYzLjIzaC0uMzA2em0tLjU4OCAwaC4zMTh2My4yM2gtLjMxOHptLS41ODcgMGguMzE4djMuMjNoLS4zMTh6bS0uNTg3IDBoLjMxOHYzLjIzaC0uMzE4em0tLjU4NyAwaC4zMTh2My4yM2gtLjMxOHptLS41NzUgMGguMzA2djMuMjNoLS4zMDZ6bS0uMzIzLS4zMjNoMy44NzZWOS4xSDE5Ljc1ek0yNy40NjggMTBoLjMwNnYzLjIzaC0uMzA2em0tLjU4NyAwaC4zMTh2My4yM2gtLjMxOHptLS41ODcgMGguMzE4djMuMjNoLS4zMTh6bS0uNTg3IDBoLjMxOHYzLjIzaC0uMzE4em0tLjU4OCAwaC4zMTh2My4yM2gtLjMxOHptLS41NzUgMGguMzA2djMuMjNoLS4zMDZ6bS0uMzIzLS4zMjNoMy44NzZ2My44NzZIMjQuMjJ6IiBmaWxsPSIjMjBjMmVmIi8+PHBhdGggZD0iTTI3LjQ2OCA1LjU0aC4zMDZ2My4yM2gtLjMwNnptLS41ODcgMGguMzE4djMuMjNoLS4zMTh6bS0uNTg3IDBoLjMxOHYzLjIzaC0uMzE4em0tLjU4NyAwaC4zMTh2My4yM2gtLjMxOHptLS41ODggMGguMzE4djMuMjNoLS4zMTh6bS0uNTc1IDBoLjMwNnYzLjIzaC0uMzA2em0tLjMyMy0uMzIzaDMuODc2VjkuMDlIMjQuMjJ6IiBmaWxsPSIjMDBhY2QzIi8+PHBhdGggZD0iTTI3LjQ2OCAxLjA2OGguMzA2djMuMjNoLS4zMDZ6bS0uNTg3IDBoLjMxOHYzLjIzaC0uMzE4em0tLjU4NyAwaC4zMTh2My4yM2gtLjMxOHptLS41ODcgMGguMzE4djMuMjNoLS4zMTh6bS0uNTg4IDBoLjMxOHYzLjIzaC0uMzE4em0tLjU3NSAwaC4zMDZ2My4yM2gtLjMwNnpNMjQuMjIuNzQ1aDMuODc2VjQuNjJIMjQuMjJ6IiBmaWxsPSIjMjBjMmVmIi8+PHBhdGggZD0iTTMxLjk0IDEwLjAxaC4zMDZ2My4yM2gtLjMwNnptLS41ODcgMGguMzE4djMuMjNoLS4zMTh6bS0uNTg4IDBoLjMxOHYzLjIzaC0uMzE4em0tLjU4NyAwaC4zMTh2My4yM2gtLjMxOHptLS41ODcgMGguMzE4djMuMjNoLS4zMTh6bS0uNTc1IDBoLjMwNnYzLjIzaC0uMzA2em0tLjMyMy0uMzIzaDMuODc2djMuODc2aC0zLjg3NnoiIGZpbGw9IiMwMGFjZDMiLz48cGF0aCBkPSJNMTguOTEgMTkuODQ3YTEuMDcgMS4wNyAwIDAgMSAxLjA2OSAxLjA2OSAxLjA3IDEuMDcgMCAwIDEtMS4wNjkgMS4wNjkgMS4wNyAxLjA3IDAgMCAxLTEuMDY5LTEuMDY5IDEuMDcgMS4wNyAwIDAgMSAxLjA2OS0xLjA2OSIgZmlsbD0iI2Q0ZWRmMSIvPjxwYXRoIGQ9Ik0xOC45IDIwLjE1YS43NS43NSAwIDAgMSAuMjc3LjA1MmMtLjA5My4wNTQtLjE1Ni4xNTUtLjE1Ni4yNyAwIC4xNzMuMTQuMzEyLjMxMy4zMTIuMTE4IDAgLjIyLS4wNjYuMjc0LS4xNjMuMDM3LjEuMDU4LjIuMDU4LjI5NCAwIC40MjMtLjM0My43NjYtLjc2Ni43NjZzLS43NjYtLjM0My0uNzY2LS43NjYuMzQzLS43NjYuNzY2LS43NjZNMCAxNy42M2g0OS43MzZjLTEuMDgzLS4yNzUtMy40MjYtLjY0Ni0zLjA0LTIuMDY1LTEuOTcgMi4yOC02LjcxOCAxLjYtNy45MTYuNDc1LTEuMzM1IDEuOTM2LTkuMTA0IDEuMi05LjY0Ni0uMzA4LTEuNjczIDEuOTY0LTYuODU4IDEuOTY0LTguNTMgMC0uNTQyIDEuNTA4LTguMyAyLjI0NC05LjY0Ni4zMDhDOS43NiAxNy4xNjUgNSAxNy44NDUgMy4wNCAxNS41NjZjLjM4NiAxLjQyLTEuOTU4IDEuOC0zLjA0IDIuMDY1IiBmaWxsPSIjMzk0ZDU0Ii8+PC9nPjxwYXRoIGQ9Ik0yMS43NTMgMjcuNTVjLTIuNjQ4LTEuMjU2LTQuMS0yLjk2NC00LjktNC44My0uOTg0LjI4LTIuMTY2LjQ2LTMuNTQuNTM3bC0xLjYzMy4wNDRhMzguOTkgMzguOTkgMCAwIDEtMi4wODEtLjA1OGMyLjQyOCAyLjQyNyA1LjQxNSA0LjI5NSAxMC45NDYgNC4zM2EyOC45IDI4LjkgMCAwIDAgMS4yMTctLjAyM3oiIGZpbGw9IiNiZmRiZTAiLz48cGF0aCBkPSJNMTcuODI3IDI0LjQ0M2E5LjI2IDkuMjYgMCAwIDEtLjk4My0xLjcyMWMtLjk4NC4yOC0yLjE2Ni40Ni0zLjU0LjUzOC45NDQuNTEyIDIuMjkzLjk4NiA0LjUyMyAxLjE4M3oiIGZpbGw9IiNkNGVkZjEiLz48L3N2Zz4=;" parent="1" vertex="1">
          <mxGeometry x="-1484" y="-566" width="38" height="32" as="geometry" />
        </mxCell>
        <mxCell id="Lh-iwgCYphF1HfvxAwnO-45" value="Static Site" style="points=[];aspect=fixed;html=1;align=center;shadow=0;dashed=0;fillColor=#FF6A00;strokeColor=none;shape=mxgraph.alibaba_cloud.domain_and_website;labelPosition=center;verticalLabelPosition=bottom;verticalAlign=top;" parent="1" vertex="1">
          <mxGeometry x="-1323.51" y="-545.5" width="31.6" height="25.5" as="geometry" />
        </mxCell>
        <mxCell id="Lh-iwgCYphF1HfvxAwnO-46" value="Cat Camera" style="image;points=[];aspect=fixed;html=1;align=center;shadow=0;dashed=0;image=data:image/svg+xml,PHN2ZyB4bWxucz0iaHR0cDovL3d3dy53My5vcmcvMjAwMC9zdmciIHhtbG5zOnhsaW5rPSJodHRwOi8vd3d3LnczLm9yZy8xOTk5L3hsaW5rIiB2aWV3Qm94PSIwIDAgNjEuNjQzIDU4LjYxIj48ZyBmaWxsPSJub25lIiBzdHJva2U9IiM2MjYzNjYiIHN0cm9rZS13aWR0aD0iMi40ODEiIHN0cm9rZS1saW5lam9pbj0icm91bmQiPjxwYXRoIGQ9Ik01OC4wMDYgMzQuMzNjMCAxMi4wODctMTIuODUgMjMuMDM4LTI3LjczNyAyMy4wMzhTMy42MzggNDYuNDk1IDMuNjM4IDMyLjc2NWMwLTMuMDIyLjM0My02LjM0MyAxLjc1LTguMSA0LjMzLTUuNDM3IDUwLjIyLTcuMzcyIDUyLjI1NiAxLjY1OC40MjQgMS44ODcuMzYgNS45NjIuMzYgOC4wMTh6Ii8+PHVzZSB4bGluazpocmVmPSIjQiIvPjwvZz48cGF0aCBkPSJNNTguMDA2IDM0LjMzYzAgMTIuMDg3LTEyLjg1IDIzLjAzOC0yNy43MzcgMjMuMDM4UzMuNjM4IDQ2LjQ5NSAzLjYzOCAzMi43NjVjMC0zLjAyMi4zNDMtNi4zNDMgMS43NS04LjEgNC4zMy01LjQzNyA1MC4yMi03LjM3MiA1Mi4yNTYgMS42NTguNDI0IDEuODg3LjM2IDUuOTYyLjM2IDguMDE4IiBmaWxsPSIjODk4YjhlIi8+PHBhdGggZD0iTTE4LjU2NiA0NC40NjhjMS4wMy45NTgtNC41MTMgMy4zMzQtNC44NjcgMy4wNzUtOC43MzctNi4zODYtNy44NjUtMTUuMDctNy4yMDQtMTUuOTc2IDEuNzUtMi4zOTYgNi4wODItMy44NyA2LjA4Mi0zLjg3LS4xMTUgNi4zNTggMy43MjUgMTQuNjY2IDYgMTYuNzdNNDkuODI0IDI3LjczYy0uNS0xLjMgNS43MTUgMy4wMzYgNS44IDMuNDY2IDEuNTU3IDcuODg1LTUuNjU0IDE1LjQzNS02LjcyNyAxNS43NTgtMi44NDIuODU1LTUuNzQtMi42MDItNS4yNTMtMi44NTYgMy4zMzUtMS43MzYgNy4wMTYtMTQuMjIgNi4xOC0xNi4zNjhNMzAuNzM2IDU1LjI2M2MtNy42NjcgMC04LjkxNi01LjA1Mi04Ljc3Ni05LjAyNS4xMi0zLjQyNyAxLjYyLTkuODQ4IDguNzg1LTEwLjExNyA1LjA0LS4yIDguNzM2IDMuNDI2IDguNzcyIDkuOTguMDI1IDQuNDc1LTEuOTE3IDkuMTYzLTguNzggOS4xNjMiIGZpbGw9IiNlNWU2ZTciLz48cGF0aCBkPSJNMzcuNDU3IDQ2Ljc3MmMwIDMuMTU1LTMuMDEyIDUuNzEzLTYuNzI4IDUuNzEzcy02LjcyNi0yLjU1OC02LjcyNi01LjcxMyAzLjAxMi01LjcxMyA2LjcyNi01LjcxMyA2LjcyOCAyLjU1OCA2LjcyOCA1LjcxMyIgZmlsbD0iIzU4NTg1YiIvPjxwYXRoIGQ9Ik0zNC40MTYgNDguMDg3YTMuNzggMy43OCAwIDAgMS0zLjc3OCAzLjc3OCAzLjc4IDMuNzggMCAwIDEtMy43NzktMy43NzggMy43OCAzLjc4IDAgMCAxIDMuNzc5LTMuNzc4IDMuNzggMy43OCAwIDAgMSAzLjc3OCAzLjc3OCIgZmlsbD0iI2ZlZmVmZSIvPjx1c2UgeGxpbms6aHJlZj0iI0IiIGZpbGw9IiNiM2I1YjciLz48cGF0aCBkPSJNMTEuODA0IDQuMjJ2MTkuNzg1Yy04LjI2IDIuNDU2LTEwLjU2NCA2LTEwLjU2NCA2di0xOS42MlM0LjA3IDYuODg4IDExLjgwNCA0LjIybTQ4LjYgNi4xNTdWMzBzLTIuMTA4LTMuMDQ2LTkuMTE3LTUuNDQ2VjQuNzgzYzYuMjMzIDIuNTY4IDkuMTE3IDUuNTk0IDkuMTE3IDUuNTk0IiBmaWxsPSIjODA4MTg0Ii8+PGcgZmlsbD0ibm9uZSIgc3Ryb2tlLWxpbmVqb2luPSJyb3VuZCIgc3Ryb2tlLXdpZHRoPSIxLjI0IiBzdHJva2UtbGluZWNhcD0icm91bmQiPjxwYXRoIGQ9Ik01OS40ODUgMjkuMWMtMi4yNTMtMi4xMTUtOS42MTctNy4yNS0yOC4xNDItNy4zOTctMTkuNjEyLS4xNTUtMjcuMTI2IDUuMTgtMjkuMzggNy4zNzMiIHN0cm9rZT0iIzU4NTg1YiIvPjxwYXRoIGQ9Ik01Ny4zMjcgMjkuMWMtMi4yNTItMi4xMTUtOS44NzQtNi4yMDYtMjYuNDAyLTYuMjA3LTE1LjkyMy0uMDAxLTI1LjAzNCA0LjItMjcuMjg4IDYuNDAyIiBzdHJva2U9IiNmMGYwZjEiLz48L2c+PGRlZnMgPjxwYXRoIGlkPSJCIiBkPSJNNjAuNDAzIDMwcy01LjYyLTguMTEtMjguOTY3LTguMjkzQzYuNzcgMjEuNTEyIDEuMjQgMzAgMS4yNCAzMFYxMC4zNzJTOC4zMzYgMS42MTggMzAuODIgMS4yNUM1MS4zODQuOTEyIDYwLjQgMTAuMzcyIDYwLjQgMTAuMzcyTDYwLjQwMyAzMHoiLz48L2RlZnM+PC9zdmc+;" parent="1" vertex="1">
          <mxGeometry x="-1113.5" y="-552.5" width="37" height="35" as="geometry" />
        </mxCell>
        <mxCell id="MjGENoWTgKKkezq1BHXC-1" value="" style="image;sketch=0;aspect=fixed;html=1;points=[];align=center;fontSize=12;image=data:image/svg+xml,PHN2ZyB4bWxucz0iaHR0cDovL3d3dy53My5vcmcvMjAwMC9zdmciIHdpZHRoPSI1MCIgaGVpZ2h0PSI0MS45NDgiPjxwYXRoIGQ9Ik0zNy4wMiAzOS4zMDhsNC41NTUtMy45MThjLS4zMDUtLjM4NC0uODE1LS42NjItMS4yNDgtLjgyNy0uODc0LS4zMzMtMS43MzYtLjIyLTIuNTM3LjI0Mi0xLjA1LjYwNi0xLjQ5NiAxLjU3LTEuNDU3IDIuNzdhMi42NSAyLjY1IDAgMCAwIC4zOTQgMS4zMyAzLjQ5IDMuNDkgMCAwIDAgLjI5My40MDFtMS4zLjkxNGMuNTUuMTkyIDEuMTguMTY1IDEuNzQ2LjA2Ni4zLS4xMjMgMS4wMy0uNDQ2IDEuMzAyLS4zOThsLjA0My4wMDcuMDQuMDJjLjE2Ni4wOC4zMjUuMTk1LjQuMzYzLjE5OC4zOTcuMTAzLjc5NS0uMjg2IDEuMDJsLS4xMy4wNzVjLTEuNDM3LjgzLTIuOTY2LjcxNS00LjQtLjA2LS42ODUtLjM3LTEuMi0uOTItMS41OTYtMS42bC0uMS0uMTU3Yy0uOTIzLTEuNTk4LS43OTgtMy4yOC4yNDItNC44LjM2LS41MjUuODMtLjkzIDEuMzc4LTEuMjQ4bC4yMDgtLjEyYzEuMzU0LS43OCAyLjgwNC0uNzI4IDQuMTk1LS4wNDIuNzQ3LjM3IDEuMzUzLjkyIDEuNzcgMS42NDJsLjA3NS4xM2MuMzAzLjUyNS0uMS45ODMtLjQ5NSAxLjI5NmwtMS4zOTcgMS4yTDM4LjMgNDAuMjF6bTEwLjc3LTcuMjdoLjE1Yy40NTUgMCAuNzU4LjMwNi43NTguNzU4IDAgLjYyNy0uNi43ODgtMS4xMi43ODgtLjY4IDAtMS4zMy40MTItMS44Ljg3NC0uNTg1LjU3Ny0uODQgMS4zMTUtLjg0IDIuMTI3djMuNjdjMCAuNDItLjI2Mi43NTgtLjY5OC43NThoLS4xMmMtLjQzNiAwLS42OTgtLjMzOC0uNjk4LS43NTh2LTMuODhjMC0xLjUuNzI1LTIuNzA1IDEuOTM0LTMuNTU4YTQuMTYgNC4xNiAwIDAgMSAyLjQzMi0uNzc5em0tMTguODg3IDIuNjA0bDEuNzc3LTEuNzU3Yy4xNjctLjE2Mi43OTctLjg0NiAxLjA0NS0uODQ2aC4yN2wuMDMuMDA2Yy4zNDYuMDcyLjYwNS4zLjYwNS42NjJ2LjE1YzAgLjI1My0uMjk3LjU0OC0uNDYuNzJsLTIuOTAyIDIuOTQ1IDIuMzU4IDIuMzc3LjY0Ni42NjRjLjA3NS4wOC4xODYuMTc4LjI1LjI4OGEuNjIuNjIgMCAwIDEgLjEwOS4zNDJ2LjE1N2wtLjAxLjAzNmMtLjA4NS4zNDYtLjMwNS42MjUtLjY4OC42MjVoLS4xMmMtLjI1IDAtLjUzNC0uMjg0LS43MDYtLjQ0NmwtMS4wNDItMS4wMjUtMS4xNjMtMS4xNDJ2MS44MjVjMCAuNDItLjI2My43NTgtLjY5OC43NThoLS4xMmMtLjQzNSAwLS42OTgtLjMzOC0uNjk4LS43NThWMzAuODUzYzAtLjQyLjI2My0uNzU3LjY5OC0uNzU3aC4xMmMuNDM1IDAgLjY5OC4zMzYuNjk4Ljc1N3Y0LjcwM3pNMjUuMyAzNC41M2MtLjIzLS4xMDctLjY1Ny0uMTQzLS45MDQtLjE1Mi0xLjI2Ni0uMDQ4LTIuMTgyLjY2NS0yLjcyIDEuNzgyLS4xODYuMzg1LS4yNy43OTMtLjI3IDEuMjIgMCAxLjI5OC42OCAyLjIwNyAxLjg0IDIuNzYuNDIzLjIwMi45Ny4yNCAxLjQzMi4yNC40MDcgMCAuOTgyLS4yNSAxLjM0My0uNDJsLjA2My0uMDNoLjI4bC4wMy4wMDZjLjM0NS4wNzIuNjA1LjMuNjA1LjY2di4xNWMwIC45MjMtMS42ODYgMS4xMzQtMi4zMyAxLjE4LTIuMjcuMTU3LTMuOTY4LTEuMS00LjYxNi0zLjI1NS0uMTEzLS4zNzYtLjE2My0uNzUtLjE2My0xLjE0di0uM2MwLTEuNjQzLjgxNS0yLjk0NSAyLjIyNS0zLjc4MmE0LjE1IDQuMTUgMCAwIDEgMi4xNDItLjU4NWguM2EzLjg1IDMuODUgMCAwIDEgMi4yMTguNjg1bC4wNTUuMDM4LjAzNS4wNTdjLjA3Mi4xMi4xMzQuMjU3LjEzNC40di4xNWMwIC4zODctLjMuNTk1LS42NC42NjJsLS4wMy4wMDVoLS4xYy0uMjI3LS4wMDEtLjc0LS4yMzYtLjk0My0uMzN6TTExLjQ3MyAzNy40YzAgMS4xNTIuNTY1IDIgMS41MzggMi41OTUuNDU3LjI4Ljk2LjQwNiAxLjQ5NC40MDYgMS4xMzggMCAxLjk4LS41NzcgMi41NjUtMS41MzguMjgtLjQ1OC40MDUtLjk2LjQwNS0xLjQ5NCAwLTEuMDctLjUxNi0xLjktMS4zOTgtMi40ODJhMi44MiAyLjgyIDAgMCAwLTEuNjAzLS40ODhjLTEuMjcgMC0yLjE4My42NC0yLjczIDEuNzgtLjE4Ni4zODQtLjI3Ljc5My0uMjcgMS4yMnptMi44NS00LjUxOGguMmMxLjc1NiAwIDMuMS44NTIgMy45MzcgMi4zODQuMzM4LjYxMy41MiAxLjI4Mi41MiAxLjk4M3YuM2MwIDEuNjQzLS44IDIuOTUyLTIuMjI2IDMuNzgzLS42NTYuMzg1LTEuMzguNTg0LTIuMTQuNTg0aC0uM2MtMS42NDMgMC0yLjk1LS44MTItMy43ODItMi4yMjZhNC4xNyA0LjE3IDAgMCAxLS41ODQtMi4xNDF2LS4zYzAtMS42NDMuODE1LTIuOTQ1IDIuMjI1LTMuNzgzLjY1NS0uNCAxLjM4LS41ODQgMi4xNC0uNTg0ek0xLjU1IDM3LjRjMCAxLjE4Ny41NzUgMi4wOCAxLjYxNSAyLjY0OC40Mi4yMy44NzcuMzU0IDEuMzU3LjM1NCAxLjE2NSAwIDIuMDMtLjU1IDIuNjI0LTEuNTM2LjI3Ny0uNDYuNDA2LS45Ni40MDYtMS40OTYgMC0xLjAzLS40ODctMS44My0xLjMxNi0yLjQyOGEyLjgzIDIuODMgMCAwIDAtMS42ODUtLjU0M2MtMS4yNyAwLTIuMTgzLjY0LTIuNzMgMS43OC0uMTg2LjM4NC0uMjcuNzkzLS4yNyAxLjIyem02LjAwMi0zLjM4N3YtMy4yYzAtLjQyLjI2My0uNzU4LjY5OC0uNzU4aC4xMmMuNDM1IDAgLjY5Ny4zMzguNjk3Ljc1OHY2LjczNmMwIDEuNjQzLS44MTIgMi45NS0yLjIyNiAzLjc4MmE0LjE4IDQuMTggMCAwIDEtMi4xNC41ODRoLS4zYy0xLjY0MyAwLTIuOTQ4LS44MTItMy43ODItMi4yMjZhNC4xNyA0LjE3IDAgMCAxLS41ODQtMi4xNDF2LS4zYzAtMS42NDMuODEyLTIuOTUgMi4yMjUtMy43ODRhNC4xNyA0LjE3IDAgMCAxIDIuMTQtLjU3NGguM2MxLjExMi4wMDIgMi4wNTUuNDMzIDIuODUgMS4xMzN6bTIxLjMtMjUuMDdoNC40NzJ2NC41N2gyLjI2YTkuODEgOS44MSAwIDAgMCAzLjEwNy0uNTIxYy40ODYtLjE2NSAxLjAzLS4zOTQgMS41LS42ODItLjYzLS44MjQtLjk1My0xLjg2NS0xLjA0OC0yLjktLjEzLTEuMzk1LjE1My0zLjIgMS4wOTctNC4zMDNsLjQ3LS41NDQuNTYuNDVjMS40IDEuMTMzIDIuNTk2IDIuNzE2IDIuODA1IDQuNTIgMS42OTgtLjUgMy42OTItLjM4IDUuMTg4LjQ4M2wuNjE0LjM1NC0uMzIzLjYzYy0xLjI2NiAyLjQ3LTMuOTEyIDMuMjM2LTYuNSAzLjEtMy44NyA5LjY0My0xMi4zIDE0LjIwOC0yMi41MiAxNC4yMDgtNS4yOCAwLTEwLjEyNC0xLjk3NC0xMi44ODItNi42NThsLS4wNDUtLjA3Ny0uNDAyLS44MThjLS45MzItMi4wNjItMS4yNDItNC4zMi0xLjAzMi02LjU3OGwuMDYzLS42NzZoMy44MjRWOC45M2g0LjQ3VjQuNDdoOC45NDNWMGg1LjM2NnoiIGZpbGw9IiMzOTRkNTQiIGZpbGwtcnVsZT0iZXZlbm9kZCIvPjxwYXRoIGQ9Ik00My4zMyAxMC42MzRjLjMtMi4zMy0xLjQ0NC00LjE2LTIuNTI1LTUuMDMtMS4yNDYgMS40NC0xLjQ0IDUuMjE3LjUxNSA2LjgwNy0xLjA5Ljk3LTMuNCAxLjg0OC01Ljc0NSAxLjg0OEg2LjkxN2MtLjIzIDIuNDU4LjIwMyA0LjcyIDEuMTg4IDYuNjU4bC4zMjYuNTk2Yy4yMDYuMzUuNDMyLjY4OC42NzYgMS4wMTRsMy4yNTguMDhjMS45NTQtLjA0MyAzLjU0OC0uMjc0IDQuNzU1LS42OTIuMTgtLjA2Mi4zNzYuMDMzLjQzOC4yMTJzLS4wMzMuMzc2LS4yMTMuNDM4bC0uNS4xNTdjLS45NTIuMjctMS45NzIuNDU0LTMuMjg3LjUzNi4wNzguMDAxLS4wOC4wMTItLjA4Mi4wMTJsLS4xNDYuMDEyLTEuNjQ4LjAzNWEzNy4wOCAzNy4wOCAwIDAgMS0xLjkyOS0uMDQ3bC0uMDE4LjAxMmMyLjM4OCAyLjY4NCA2LjEyIDQuMjkzIDEwLjggNC4yOTMgOS45MDUgMCAxOC4zMDYtNC4zOSAyMi4wMjYtMTQuMjQ4IDIuNjQuMjcgNS4xNzYtLjQwMiA2LjMzLTIuNjU1LTEuODM3LTEuMDYtNC4yLS43MjMtNS41Ni0uMDR6IiBmaWxsPSIjMDBhYWRhIi8+PHBhdGggZD0iTTQzLjMzIDEwLjYzNGMuMy0yLjMzLTEuNDQ0LTQuMTYtMi41MjUtNS4wMy0xLjI0NiAxLjQ0LTEuNDQgNS4yMTcuNTE1IDYuODA3LTEuMDkuOTctMy40IDEuODQ4LTUuNzQ1IDEuODQ4SDguNjE0Yy0uMTE3IDMuNzY0IDEuMjggNi42MiAzLjc1IDguMzQ4IDEuOTU0LS4wNDMgMy41NDgtLjI3NCA0Ljc1NS0uNjkyLjE4LS4wNjIuMzc2LjAzMy40MzguMjEycy0uMDMzLjM3Ni0uMjEzLjQzOGwtLjUuMTU3Yy0uOTUyLjI3LTIuMDYuNDc4LTMuMzc1LjU2bC0uMDMyLS4wM2MzLjM3IDEuNzMgOC4yNTggMS43MjMgMTMuODYyLS40MyA2LjI4My0yLjQxNCAxMi4xMy03LjAxMyAxNi4yLTEyLjI3My0uMDYyLjAyNy0uMTIyLjA1Ni0uMTguMDg1eiIgZmlsbD0iIzI0YjhlYiIvPjxwYXRoIGQ9Ik02Ljk3IDE3LjI0NWMuMTc4IDEuMzE2LjU2MyAyLjU1IDEuMTM0IDMuNjcybC4zMjYuNTk2Yy4yMDYuMzUuNDMyLjY4OC42NzYgMS4wMTRsMy4yNi4wOGMxLjk1My0uMDQzIDMuNTQ3LS4yNzQgNC43NTQtLjY5Mi4xOC0uMDYyLjM3Ni4wMzMuNDM4LjIxMnMtLjAzMy4zNzYtLjIxMy40MzhsLS41LjE1N2MtLjk1Mi4yNy0yLjA1NC40NjYtMy4zNy41NDdsLS4xNy4wMDYtMS42NDIuMDQ3YTM3Ljk1IDM3Ljk1IDAgMCAxLTEuOTUyLS4wNDdjMi4zODggMi42ODQgNi4xNDUgNC4zIDEwLjgyNSA0LjMgOC40OCAwIDE1Ljg1Ni0zLjIyIDIwLjEzOC0xMC4zM0g2Ljk3eiIgZmlsbD0iIzAwOGJiOCIvPjxwYXRoIGQ9Ik04Ljg3MiAxNy4yNDVjLjUwNyAyLjMxIDEuNzI1IDQuMTI2IDMuNDkzIDUuMzYyIDEuOTUzLS4wNDMgMy41NDctLjI3NCA0Ljc1NC0uNjkyLjE4LS4wNjIuMzc2LjAzMy40MzguMjEycy0uMDMzLjM3Ni0uMjEzLjQzOGwtLjUuMTU3Yy0uOTUyLjI3LTIuMDc3LjQ2Ni0zLjM5My41NDcgMy4zNyAxLjczIDguMjQ0IDEuNzA0IDEzLjg0Ny0uNDQ4IDMuNC0xLjMwMiA2LjY1Mi0zLjI0IDkuNTgtNS41NzZ6IiBmaWxsPSIjMDM5YmM2Ii8+PGcgZmlsbC1ydWxlPSJldmVub2RkIj48cGF0aCBkPSJNMTQuMDUzIDEwaC4zMDZ2My4yM2gtLjMwNnptLS41ODcgMGguMzE4djMuMjNoLS4zMTh6bS0uNTg3IDBoLjMxOHYzLjIzaC0uMzE4em0tLjU4OCAwaC4zMTh2My4yM2gtLjMxOHptLS41ODcgMGguMzE4djMuMjNoLS4zMTh6bS0uNTc1IDBoLjMwNnYzLjIzaC0uMzA2em0tLjMyMi0uMzIzaDMuODc1djMuODc2aC0zLjg3NXptNy43MTgtNC4xNDdoLjMwNnYzLjIzaC0uMzA2em0tLjU4NyAwaC4zMTh2My4yM2gtLjMxOHptLS41ODggMGguMzE4djMuMjNoLS4zMTh6bS0uNTg3IDBoLjMxOHYzLjIzaC0uMzE4em0tLjU4NyAwaC4zMTh2My4yM2gtLjMxOHptLS41NzUgMGguMzA2djMuMjNIMTUuNnptLS4zMjMtLjMyM2gzLjg3NlY5LjFoLTMuODc2eiIgZmlsbD0iIzAwYWNkMyIvPjxwYXRoIGQ9Ik0xOC41MjUgMTAuMDFoLjMwNnYzLjIzaC0uMzA2em0tLjU4NyAwaC4zMTh2My4yM2gtLjMxOHptLS41ODggMGguMzE4djMuMjNoLS4zMTh6bS0uNTg3IDBoLjMxOHYzLjIzaC0uMzE4em0tLjU4NyAwaC4zMTh2My4yM2gtLjMxOHptLS41NzUgMGguMzA2djMuMjNIMTUuNnptLS4zMjMtLjMyM2gzLjg3NnYzLjg3NmgtMy44NzZ6IiBmaWxsPSIjMjBjMmVmIi8+PHBhdGggZD0iTTIyLjk5NyAxMC4wMWguMzA2djMuMjNoLS4zMDZ6bS0uNTg4IDBoLjMxOHYzLjIzaC0uMzE4em0tLjU4NyAwaC4zMTh2My4yM2gtLjMxOHptLS41ODcgMGguMzE4djMuMjNoLS4zMTh6bS0uNTg3IDBoLjMxOHYzLjIzaC0uMzE4em0tLjU3NSAwaC4zMDZ2My4yM2gtLjMwNnptLS4zMjMtLjMyM2gzLjg3NnYzLjg3NkgxOS43NXoiIGZpbGw9IiMwMGFjZDMiLz48cGF0aCBkPSJNMjIuOTk3IDUuNTRoLjMwNnYzLjIzaC0uMzA2em0tLjU4OCAwaC4zMTh2My4yM2gtLjMxOHptLS41ODcgMGguMzE4djMuMjNoLS4zMTh6bS0uNTg3IDBoLjMxOHYzLjIzaC0uMzE4em0tLjU4NyAwaC4zMTh2My4yM2gtLjMxOHptLS41NzUgMGguMzA2djMuMjNoLS4zMDZ6bS0uMzIzLS4zMjNoMy44NzZWOS4xSDE5Ljc1ek0yNy40NjggMTBoLjMwNnYzLjIzaC0uMzA2em0tLjU4NyAwaC4zMTh2My4yM2gtLjMxOHptLS41ODcgMGguMzE4djMuMjNoLS4zMTh6bS0uNTg3IDBoLjMxOHYzLjIzaC0uMzE4em0tLjU4OCAwaC4zMTh2My4yM2gtLjMxOHptLS41NzUgMGguMzA2djMuMjNoLS4zMDZ6bS0uMzIzLS4zMjNoMy44NzZ2My44NzZIMjQuMjJ6IiBmaWxsPSIjMjBjMmVmIi8+PHBhdGggZD0iTTI3LjQ2OCA1LjU0aC4zMDZ2My4yM2gtLjMwNnptLS41ODcgMGguMzE4djMuMjNoLS4zMTh6bS0uNTg3IDBoLjMxOHYzLjIzaC0uMzE4em0tLjU4NyAwaC4zMTh2My4yM2gtLjMxOHptLS41ODggMGguMzE4djMuMjNoLS4zMTh6bS0uNTc1IDBoLjMwNnYzLjIzaC0uMzA2em0tLjMyMy0uMzIzaDMuODc2VjkuMDlIMjQuMjJ6IiBmaWxsPSIjMDBhY2QzIi8+PHBhdGggZD0iTTI3LjQ2OCAxLjA2OGguMzA2djMuMjNoLS4zMDZ6bS0uNTg3IDBoLjMxOHYzLjIzaC0uMzE4em0tLjU4NyAwaC4zMTh2My4yM2gtLjMxOHptLS41ODcgMGguMzE4djMuMjNoLS4zMTh6bS0uNTg4IDBoLjMxOHYzLjIzaC0uMzE4em0tLjU3NSAwaC4zMDZ2My4yM2gtLjMwNnpNMjQuMjIuNzQ1aDMuODc2VjQuNjJIMjQuMjJ6IiBmaWxsPSIjMjBjMmVmIi8+PHBhdGggZD0iTTMxLjk0IDEwLjAxaC4zMDZ2My4yM2gtLjMwNnptLS41ODcgMGguMzE4djMuMjNoLS4zMTh6bS0uNTg4IDBoLjMxOHYzLjIzaC0uMzE4em0tLjU4NyAwaC4zMTh2My4yM2gtLjMxOHptLS41ODcgMGguMzE4djMuMjNoLS4zMTh6bS0uNTc1IDBoLjMwNnYzLjIzaC0uMzA2em0tLjMyMy0uMzIzaDMuODc2djMuODc2aC0zLjg3NnoiIGZpbGw9IiMwMGFjZDMiLz48cGF0aCBkPSJNMTguOTEgMTkuODQ3YTEuMDcgMS4wNyAwIDAgMSAxLjA2OSAxLjA2OSAxLjA3IDEuMDcgMCAwIDEtMS4wNjkgMS4wNjkgMS4wNyAxLjA3IDAgMCAxLTEuMDY5LTEuMDY5IDEuMDcgMS4wNyAwIDAgMSAxLjA2OS0xLjA2OSIgZmlsbD0iI2Q0ZWRmMSIvPjxwYXRoIGQ9Ik0xOC45IDIwLjE1YS43NS43NSAwIDAgMSAuMjc3LjA1MmMtLjA5My4wNTQtLjE1Ni4xNTUtLjE1Ni4yNyAwIC4xNzMuMTQuMzEyLjMxMy4zMTIuMTE4IDAgLjIyLS4wNjYuMjc0LS4xNjMuMDM3LjEuMDU4LjIuMDU4LjI5NCAwIC40MjMtLjM0My43NjYtLjc2Ni43NjZzLS43NjYtLjM0My0uNzY2LS43NjYuMzQzLS43NjYuNzY2LS43NjZNMCAxNy42M2g0OS43MzZjLTEuMDgzLS4yNzUtMy40MjYtLjY0Ni0zLjA0LTIuMDY1LTEuOTcgMi4yOC02LjcxOCAxLjYtNy45MTYuNDc1LTEuMzM1IDEuOTM2LTkuMTA0IDEuMi05LjY0Ni0uMzA4LTEuNjczIDEuOTY0LTYuODU4IDEuOTY0LTguNTMgMC0uNTQyIDEuNTA4LTguMyAyLjI0NC05LjY0Ni4zMDhDOS43NiAxNy4xNjUgNSAxNy44NDUgMy4wNCAxNS41NjZjLjM4NiAxLjQyLTEuOTU4IDEuOC0zLjA0IDIuMDY1IiBmaWxsPSIjMzk0ZDU0Ii8+PC9nPjxwYXRoIGQ9Ik0yMS43NTMgMjcuNTVjLTIuNjQ4LTEuMjU2LTQuMS0yLjk2NC00LjktNC44My0uOTg0LjI4LTIuMTY2LjQ2LTMuNTQuNTM3bC0xLjYzMy4wNDRhMzguOTkgMzguOTkgMCAwIDEtMi4wODEtLjA1OGMyLjQyOCAyLjQyNyA1LjQxNSA0LjI5NSAxMC45NDYgNC4zM2EyOC45IDI4LjkgMCAwIDAgMS4yMTctLjAyM3oiIGZpbGw9IiNiZmRiZTAiLz48cGF0aCBkPSJNMTcuODI3IDI0LjQ0M2E5LjI2IDkuMjYgMCAwIDEtLjk4My0xLjcyMWMtLjk4NC4yOC0yLjE2Ni40Ni0zLjU0LjUzOC45NDQuNTEyIDIuMjkzLjk4NiA0LjUyMyAxLjE4M3oiIGZpbGw9IiNkNGVkZjEiLz48L3N2Zz4=;" vertex="1" parent="1">
          <mxGeometry x="-1204" y="-560" width="38" height="32" as="geometry" />
        </mxCell>
        <mxCell id="MjGENoWTgKKkezq1BHXC-3" value="" style="rounded=1;whiteSpace=wrap;html=1;" vertex="1" parent="1">
          <mxGeometry x="-1222" y="-520" width="70" height="70" as="geometry" />
        </mxCell>
        <mxCell id="Lh-iwgCYphF1HfvxAwnO-47" value="HomePage" style="image;aspect=fixed;perimeter=ellipsePerimeter;html=1;align=center;shadow=0;dashed=0;spacingTop=3;image=data:image/svg+xml,PHN2ZyB4bWxucz0iaHR0cDovL3d3dy53My5vcmcvMjAwMC9zdmciIHhtbG5zOnhsaW5rPSJodHRwOi8vd3d3LnczLm9yZy8xOTk5L3hsaW5rIiB3aWR0aD0iNzEzLjU5NCIgaGVpZ2h0PSI2MzYuMTU5IiB2aWV3Qm94PSIwIDAgMTg4LjgwNSAxNjguMzE3Ij48c3R5bGU+PCFbQ0RBVEFbLkJ7ZG9taW5hbnQtYmFzZWxpbmU6YXV0b30uQ3tmaWxsOiNmZmZ9XV0+PC9zdHlsZT48ZGVmcz48bGluZWFyR3JhZGllbnQgaWQ9IkEiIHgxPSI3MC41MTEiIHkxPSIxMzguMTE4IiB4Mj0iNzAuNzc2IiB5Mj0iMTAzLjk4NiIgeGxpbms6aHJlZj0iI0giPjxzdG9wIG9mZnNldD0iMCIgc3RvcC1jb2xvcj0iIzJjNmRjOSIvPjxzdG9wIG9mZnNldD0iMSIgc3RvcC1jb2xvcj0iIzk0Y2RmZSIvPjwvbGluZWFyR3JhZGllbnQ+PGxpbmVhckdyYWRpZW50IGlkPSJCIiB4MT0iLTMuMTk5IiB5MT0iMTMxLjQzOSIgeDI9IjE1MC41MzkiIHkyPSIxMzEuNDM5IiB4bGluazpocmVmPSIjSCI+PHN0b3Agb2Zmc2V0PSIwIiBzdG9wLWNvbG9yPSIjZmU1ZDAyIi8+PHN0b3Agb2Zmc2V0PSIxIiBzdG9wLWNvbG9yPSIjZmZmODM1Ii8+PC9saW5lYXJHcmFkaWVudD48bGluZWFyR3JhZGllbnQgaWQ9IkMiIHgxPSI5Ny44MjgiIHkxPSIxNTMuMTM1IiB4Mj0iOTcuNTQ5IiB5Mj0iMTI1LjY5NyIgeGxpbms6aHJlZj0iI0giPjxzdG9wIG9mZnNldD0iMCIgc3RvcC1jb2xvcj0iI2I3ZGVmZSIvPjxzdG9wIG9mZnNldD0iMSIgc3RvcC1jb2xvcj0iI2VhZjVmZiIvPjwvbGluZWFyR3JhZGllbnQ+PGxpbmVhckdyYWRpZW50IGlkPSJEIiB4MT0iMTQ2LjM4IiB5MT0iMTcyLjcxNCIgeDI9IjE0NS45MTIiIHkyPSIxNTAuNjc0IiB4bGluazpocmVmPSIjSCI+PHN0b3Agb2Zmc2V0PSIwIiBzdG9wLWNvbG9yPSIjMWI4MmZjIi8+PHN0b3Agb2Zmc2V0PSIxIiBzdG9wLWNvbG9yPSIjZGVlZGZmIi8+PC9saW5lYXJHcmFkaWVudD48bGluZWFyR3JhZGllbnQgaWQ9IkUiIHgxPSIxNTUuNTYxIiB5MT0iMTg0LjA1OSIgeDI9IjE1NS45MjIiIHkyPSIxNzEuNDA0IiB4bGluazpocmVmPSIjSCI+PHN0b3Agb2Zmc2V0PSIwIiBzdG9wLWNvbG9yPSIjOThjZmZlIi8+PHN0b3Agb2Zmc2V0PSIxIiBzdG9wLWNvbG9yPSIjOThjZmZlIi8+PC9saW5lYXJHcmFkaWVudD48bGluZWFyR3JhZGllbnQgaWQ9IkYiIHgxPSIxMzcuOTYxIiB5MT0iMjIwLjk4MyIgeDI9IjEzOC4yNzgiIHkyPSIxNzQuMTQ0IiB4bGluazpocmVmPSIjSCI+PHN0b3Agb2Zmc2V0PSIwIiBzdG9wLWNvbG9yPSIjMWM4NGZkIi8+PHN0b3Agb2Zmc2V0PSIxIiBzdG9wLWNvbG9yPSIjODljNmZlIi8+PC9saW5lYXJHcmFkaWVudD48bGluZWFyR3JhZGllbnQgaWQ9IkciIHgxPSIxNjUuNTYxIiB5MT0iMjIwLjM0IiB4Mj0iMTY1LjAzMiIgeTI9IjE4MC41MiIgeGxpbms6aHJlZj0iI0giPjxzdG9wIG9mZnNldD0iMCIgc3RvcC1jb2xvcj0iIzBmMmRhMCIvPjxzdG9wIG9mZnNldD0iMSIgc3RvcC1jb2xvcj0iIzg5YjNmMyIvPjwvbGluZWFyR3JhZGllbnQ+PGxpbmVhckdyYWRpZW50IGlkPSJIIiBncmFkaWVudFVuaXRzPSJ1c2VyU3BhY2VPblVzZSIvPjwvZGVmcz48ZyB0cmFuc2Zvcm09InRyYW5zbGF0ZSgxMS43MSAtNTcuODg1KSI+PHBhdGggZD0iTS0xMS43IDU3Ljg4NVYyMDQuMzhoMTcwLjIyNVY1Ny44ODV6IiBwYWludC1vcmRlcj0ibm9ybWFsIiBjbGFzcz0iQiBDIi8+PHBhdGggZD0iTS02LjcgNjMuMDR2MTM2LjhIMTU0LjA0VjYzLjA0eiIgZmlsbD0iIzAwYTBmYyIgcGFpbnQtb3JkZXI9Im5vcm1hbCIgY2xhc3M9IkIiLz48cGF0aCBkPSJNLTMuMiA2Ni41NEgxNTAuNTR2MTI5LjhILTMuMnoiIGZpbGw9InVybCgjQikiIHBhaW50LW9yZGVyPSJub3JtYWwiIGNsYXNzPSJCIi8+PHBhdGggZD0iTTUxLjMgMTc3LjUxaDg1LjA3djMuNDMzSDUxLjN6bTAtMTQuMzQ0aDg1LjA3djMuNDMzSDUxLjN6bTAtMTQuMzQ0aDg1LjA3djMuNDMzSDUxLjN6bTQ3Ljg1OC0xNC4yOTdoMzcuMjEydjMuMzRIOTkuMTQ4em0wLTE0LjM0NGgzNy4yMTJ2My4zNEg5OS4xNDh6bTAtMTQuMzQ0aDM3LjIxMnYzLjM0SDk5LjE0OHoiIGZpbGw9IiMyYzZkYzkiIHBhaW50LW9yZGVyPSJub3JtYWwiLz48cGF0aCBkPSJNLTMuMiA2Ni41NGgxNTMuNzN2MjMuMTkzSC0zLjJ6IiBmaWxsPSIjMDA3M2ZjIiBmaWxsLW9wYWNpdHk9Ii45NSIgcGFpbnQtb3JkZXI9Im5vcm1hbCIvPjxwYXRoIGQ9Ik05Mi4yMDMgNjkuOWgxMC4zNjZ2MTAuMzhIOTIuMjAzeiIgcGFpbnQtb3JkZXI9Im5vcm1hbCIgY2xhc3M9IkMiLz48cGF0aCBkPSJNLTMuMiA4OS43MzJoMzcuNHYxMDMuMDg1SC0zLjJ6IiBmaWxsPSIjN2ViOWZkIiBwYWludC1vcmRlcj0ibm9ybWFsIi8+PHBhdGggZD0iTTUxLjI2OCAxMDQuMDFoMzcuNTd2MzQuMjRoLTM3LjU3eiIgZmlsbD0idXJsKCNBKSIgcGFpbnQtb3JkZXI9Im5vcm1hbCIvPjxwYXRoIGQ9Ik0xMTAuOTggNjkuODloMTAuMzY2djEwLjM4SDExMC45OHoiIHBhaW50LW9yZGVyPSJub3JtYWwiIGNsYXNzPSJDIi8+PHBhdGggZD0iTTEyOS43NTUgNjkuODloMTAuMzY2djEwLjM4aC0xMC4zNjZ6IiBmaWxsPSIjZmQxODAwIiBwYWludC1vcmRlcj0ibm9ybWFsIi8+PHBhdGggZD0iTTEzOS42NTggMTU4LjI5bC0yMS4zOSAxMS4yNi4zOTggNDAuMTU2IDEuMTcyLjUyIDM1Ljc4NSAxNS45NzUgMjEuMjgtMTEuMzU1LjE5LTQwLjE2MnoiIGNsYXNzPSJCIEMiLz48cGF0aCBkPSJNMTM5LjgxOCAxNjIuNzI1bDMwLjY3NCAxMy40MzQtMTQuOTMyIDcuOS0zMC42NzYtMTMuNDczeiIgZmlsbD0idXJsKCNFKSIgY2xhc3M9IkIiLz48cGF0aCBkPSJNMTIyLjMxMyAxNzMuODI0bDMxLjMyNCAxMy43NTgtLjA4MiAzMy4zMTQtMzAuOTEyLTEzLjh6IiBmaWxsPSJ1cmwoI0YpIiBjbGFzcz0iQiIvPjxwYXRoIGQ9Ik0xNzMuMDc0IDE3OS4zMTZsLS4xNTggMzMuMTI1LTE1LjM2IDguMTk3LjA4Mi0zMy4xNTR6IiBmaWxsPSJ1cmwoI0cpIiBjbGFzcz0iQiIvPjxwYXRoIGQ9Ik05Ni4wNTMgMTIxLjQxNmMtNy4zMyAwLTEzLjk5OCAxLjQ2Mi0xOC45ODggMy43NC0yLjQ5NSAxLjE0LTQuNTc4IDIuNDc4LTYuMTI1IDQuMDQzcy0yLjYxIDMuNDQ1LTIuNjEgNS41MzVjMCAzLjYzIDIuMyA2LjYxNiA1LjY0OCA4Ljg2M3M3Ljg4IDQuMDM4IDEzLjMzNCA1Ljc2NmwuMDMuMDEuMDMuMDA4YzUuNjk2IDEuNjEzIDExLjAxIDEuMTM0IDE2LjA0Ny43NTRsMjYuNzQyIDEyLjcyNS0xMS44NTctMTkuODRjMS4wNTctLjcyMyAyLjA0NS0xLjUgMi44MzYtMi40NzUgMS4xOTgtMS40OSAxLjg5My0zLjQ0OCAxLjg5My01LjcxNyAwLTIuNTE1LS45MjQtNC43OTYtMi40OC02LjU3cy0zLjY3NC0zLjA4My02LjE0NS00LjA3NmMtNC45NC0xLjk4Ny0xMS4zNzQtMi43NjYtMTguMzU0LTIuNzY2eiIgY2xhc3M9IkIgQyIvPjxwYXRoIGQ9Ik05Ni4wNTMgMTI1LjQxNmM2LjY2OCAwIDEyLjcyNi44MTUgMTYuODYgMi40OCAyLjA2OC44MzIgMy42MzMgMS44NjMgNC42MyAzczEuNDg2IDIuMzM2IDEuNDg2IDMuOTM0YzAgMS41NS0uMzM2IDIuMzc0LTEgMy4yMTNzLTEuODI1IDEuNjgtMy40NDMgMi42NDhsLTEuNzEzIDEuMDI3IDcuMDg0IDExLjg1NC0xNS43NDgtNy40OTItLjUzLjA0Yy01LjI0OC4zOS0xMC4xNi44NC0xNS4xODctLjU4LTUuMjc0LTEuNjcyLTkuNTI3LTMuNDE0LTEyLjI3Ny01LjI2LTIuNzU4LTEuODUtMy44NzctMy41MjYtMy44NzctNS41NDMgMC0uNzEuMzg3LTEuNjQgMS40NTctMi43MjNzMi43Ny0yLjIyNiA0Ljk0LTMuMjE3YzQuMzQyLTEuOTgyIDEwLjUzNi0zLjM4IDE3LjMyNi0zLjM4eiIgZmlsbD0idXJsKCNDKSIgY2xhc3M9IkIiLz48cGF0aCBkPSJNMTQ1LjkxMiAxNDYuNjc0Yy04LjQxNyAwLTE1LjI4MyA2Ljg2Ni0xNS4yODMgMTUuMjgzczYuODY2IDE1LjI4MyAxNS4yODMgMTUuMjgzIDE1LjI4My02Ljg2NiAxNS4yODMtMTUuMjgzLTYuODY2LTE1LjI4My0xNS4yODMtMTUuMjgzeiIgcGFpbnQtb3JkZXI9Im5vcm1hbCIgY2xhc3M9IkIgQyIvPjxwYXRoIGQ9Ik0xNDUuOTEyIDE1MC42NzRjNi4yNTUgMCAxMS4yODMgNS4wMjggMTEuMjgzIDExLjI4M3MtNS4wMjggMTEuMjgzLTExLjI4MyAxMS4yODMtMTEuMjgzLTUuMDI4LTExLjI4My0xMS4yODMgNS4wMjgtMTEuMjgzIDExLjI4My0xMS4yODN6IiBmaWxsPSJ1cmwoI0QpIiBwYWludC1vcmRlcj0ibm9ybWFsIiBjbGFzcz0iQiIvPjwvZz48L3N2Zz4=;" parent="1" vertex="1">
          <mxGeometry x="-1200" y="-508.5" width="31.5" height="27.68" as="geometry" />
        </mxCell>
        <mxCell id="MjGENoWTgKKkezq1BHXC-6" value="" style="rounded=1;whiteSpace=wrap;html=1;" vertex="1" parent="1">
          <mxGeometry x="-1552.5" y="-528" width="182.5" height="98" as="geometry" />
        </mxCell>
        <mxCell id="Lh-iwgCYphF1HfvxAwnO-42" value="Samba" style="sketch=0;pointerEvents=1;shadow=0;dashed=0;html=1;strokeColor=none;fillColor=#505050;labelPosition=center;verticalLabelPosition=bottom;verticalAlign=top;outlineConnect=0;align=center;shape=mxgraph.office.services.network_file_share_service;" parent="1" vertex="1">
          <mxGeometry x="-1492.5" y="-517.5" width="55" height="53" as="geometry" />
        </mxCell>
      </root>
    </mxGraphModel>
  </diagram>
</mxfile>
